<svg x="0px" y="0px" width="219.7px"
	 height="251px" viewBox="0 0 219.7 251" style="enable-background:new 0 0 219.7 251;" xml:space="preserve">
<style type="text/css">
	.stt0{fill:#FEA102;}
	.stt1{fill:#FECB01;}
	.stt2{fill:#FE4D02;}
	.stt3{fill:#141413;}
	.stt4{fill:#FAFBF9;}
	.stt5{fill:#FEFEFE;}
	.stt6{fill:#75CB41;}
	.stt7{fill:#C6E79D;}
	.stt8{fill:#2AAC02;}
	.stt9{fill:#101110;}
	.stt10{fill:#EFF0EF;}
	.stt11{fill:#01A7D2;}
	.stt12{fill:#84D5E7;}
	.stt13{fill:#0282CC;}
	.stt14{fill:#0A0B0B;}
	.stt15{fill:#FAFCFC;}
</style>
<g id="orange">
	<g>
		<path class="stt0" d="M80.4,194.9c-0.5,3.9-0.7,7.9-2.5,11.5c-0.1-1.3-1-2-2-2.5c-3.2-1.5-6.6-1.5-10-0.6
			c-5.1,1.3-9.2,4.5-13.2,7.7c-0.4,0.3-0.9,0.7-0.7,1.3c0.1,0.7,1,0.6,1.6,1c-0.5,0.2-0.8,0.3-1,0.4c-2.7,1.1-5.2,2.4-7.4,4.5
			c-0.3,0.3-0.7,0.5-0.5,1c0.2,0.5,0.7,0.6,1.2,0.6c0.8,0,1.7,0,2.5,0c-1.8,1-3.3,2.3-5.1,3.2c-0.6-0.7-1.2-1.4-1.9-2
			c-0.2-0.2-0.6-0.8-1-0.2c-0.3,0.4,0.1,0.6,0.4,0.8c1.2,1.1,2.1,2.4,2.4,3.9c0.2,0.9-0.5,1.8,0,2.8c-3.8,1-7.6,0.9-11.4,0.6
			c-11.6-0.8-21.2-5.4-28.1-14.9c-0.1-0.2-0.2-0.3-0.5-0.7c1.2,0,1.9,0.8,2.6,1.3c5.6,3.8,11.7,5.1,18.2,2.6
			c4.3-1.6,7.5-4.6,10.2-8.3c0.5-0.7,0.5-1.1-0.4-1.4c-5.4-2.4-10.5-5.6-16.2-7.5c-0.8-0.3-1.7-0.5-2.3-1.3c1.6,0,3.1,0,4.8,0
			c-1.3-0.6-2.5-1-3.6-1.6c-0.6-0.3-1.6-0.6-1.4-1.4c0.2-0.6,1.1-0.5,1.8-0.5c1.5,0.1,3,0.3,4.7,0.2c-1.4-0.8-2.7-1.5-4.1-2.3
			c-0.5-0.3-1.1-0.7-0.9-1.4c0.2-0.5,0.9-0.5,1.4-0.5c1.5-0.1,2.9,0.3,4.4,0.5c2.1,1.3,4.5,2,6.7,3.3c2.6,1.6,5.4,2.9,8.1,4.3
			c0.8,0.4,1.3,0.4,1.6-0.6c0.5-2.3,1.6-4.5,1.5-6.9c0.7-2.1,1.4-4.2,2.1-6.4c0.4-0.4,0.5-0.9,0.7-1.4c1.2-3.5,3.2-6.4,5.9-8.9
			c2.8-2.6,5.9-4.7,9.4-6.1c11.2-1,19.1,8.7,20.6,15.9c-2.4,1.4-3.9,3.9-3.4,5.8C76.1,193.5,77.4,194.6,80.4,194.9z M69.7,186.1
			c0-2.7-0.8-5.2-2.7-7.3c-2-2.1-4.7-1.8-6.2,0.7c-2,3.3-1.4,9.3,1.3,12.1c2.2,2.2,4.9,1.9,6.5-0.8
			C69.4,189.4,69.7,187.8,69.7,186.1z M55.4,181.9c0.5-5.7,3-9.3,9.3-8.8c-2.4-1.1-4.8-1.6-6.9,0.1
			C55.1,175.4,54.8,178.5,55.4,181.9z"/>
		<path class="stt1" d="M43.2,223c1.7-0.9,3.3-2.2,5.1-3.2c-0.8,0-1.7,0-2.5,0c-0.5,0-1,0-1.2-0.6c-0.2-0.5,0.2-0.8,0.5-1
			c2.1-2,4.7-3.3,7.4-4.5c0.3-0.1,0.5-0.2,1-0.4c-0.6-0.4-1.4-0.2-1.6-1c-0.1-0.6,0.3-1,0.7-1.3c4-3.2,8.1-6.3,13.2-7.7
			c3.4-0.9,6.8-0.9,10,0.6c1,0.5,1.9,1.2,2,2.5c-2.7,6.9-7.6,12-14.1,15.5c-5,2.7-10.4,4.5-15.9,5.7c-0.3,0.1-0.7,0.2-1,0.3
			c-0.9,0.1-1.7,0.2-2.6,0.3C44.4,226.4,44,224.7,43.2,223z"/>
		<path class="stt2" d="M40.2,192c0,2.4-1,4.6-1.5,6.9c-0.2,1-0.8,1-1.6,0.6c-2.7-1.5-5.5-2.7-8.1-4.3c-2.1-1.3-4.5-2-6.7-3.3
			c-0.2-0.2-0.7-0.5-0.6-0.8c0.2-0.5,0.6-0.1,0.9-0.1c1,0.1,2,0.3,3.5,0.5c-1.9-1.2-3.8-1.7-4.7-3.6c2.3-0.7,4.3,0.5,6.7,0.7
			c-1.4-1.1-2.7-2-4-3c-0.4-0.3-0.9-0.7-0.6-1.3c0.3-0.5,0.8-0.3,1.3-0.3c2.4,0,4.5,1,6.4,2.2C34.4,187.9,37.3,190,40.2,192z"/>
		<path class="stt2" d="M80.4,194.9c-3-0.3-4.3-1.4-4.9-3.9c-0.4-1.9,1-4.3,3.4-5.8c0.8,1,1.8,0.9,2.9,0.6c3.2-0.7,6-2.2,7.9-5.1
			c0.1,4-3.2,8.2-7.8,9.9c3.8,0.9,7.2,0.5,10.6-0.6C89.3,193.6,85.1,194.8,80.4,194.9z"/>
		<path class="stt1" d="M58.3,169.3c-3.5,1.4-6.6,3.5-9.4,6.1c-2.7,2.5-4.7,5.4-5.9,8.9c-0.2,0.5-0.3,1-0.7,1.4
			c1.5-7.9,5.3-14.5,10.8-20.3c0.3-0.3,0.7-0.6,1.1-0.8c1.2-0.6,0.6,0.4,0.6,0.8c-0.1,0.2-0.2,0.4-0.1,0.5c0,0,0.3-0.1,0.4-0.1
			c1.7-1.2,3.4-2.3,5.6-2.6c0.1,1-0.7,1.5-1.1,2.3c1.3-0.4,2.5-0.7,3.7-1c0.7-0.1,1.5-0.3,1.8,0.6c0.3,0.9-0.3,1.4-1.1,1.8
			C62.3,167.8,60.1,168,58.3,169.3z"/>
		<path class="stt3" d="M43.2,223c0.7,1.7,1.1,3.4,1,5.3c-0.4,1.9-1.1,3.6-2.1,5.3c2.4-1.2,4-3,4.7-5.6c0.3-0.1,0.7-0.2,1-0.3
			c-1,4.1-3.6,6.5-7.6,7.8c-2.8,0.9-5.5,2.1-8.5,1.8c-0.5-0.1-0.4,0.4-0.5,0.7c-0.1,0.4,0.3,1.1-0.5,1c-0.6-0.1-0.4-0.7-0.5-1.2
			c0-0.2,0-0.3-0.1-0.6c-0.7,0.7-0.6,1.7-1,2.3c-0.2,0.3-0.2,0.9-0.8,0.6c-0.4-0.2-0.2-0.6-0.1-0.9c0.2-0.4,0.3-0.8,0.4-1.2
			c0.1-0.3,0.3-0.6,0-0.9c0,0-0.3,0.2-0.4,0.4c-0.6,0.4-1.2,1.7-1.9,1c-0.7-0.7,0.9-1,1-1.9c-1.9-0.7-3.8-1.5-5.6-2.8
			c-0.1,1.7,0.2,3.3-0.4,4.8c-0.1,0.4-0.1,0.9-0.8,0.7c-0.5-0.2-0.1-0.6-0.1-0.9c0-0.6,0.1-1.2,0.1-2.1c-0.8,1.1-1.4,2-2,2.8
			c-0.2,0.3-0.6,0.9-1.1,0.4c-0.5-0.5,0.2-0.7,0.4-1c0,0,0.1-0.1,0.1-0.1c0.3-0.6,1.4-1.2,0.8-1.9c-0.5-0.5-1,0.5-1.6,0.7
			c-0.5,0.1-0.9,0.9-1.3,0.3c-0.5-0.7,0.4-0.8,0.8-1c2.1-1.1,3.2-2.9,3.6-5.3c1.9,1.9,3.9,3.2,6.2,4c1.9,0.7,2,0.6,2.1-1.5
			c0-0.4,0-0.7,0-1.2c2,0.9,3.9,1.8,6,2.2c4.9,0.7,7.9-1.4,8.6-6.4c-0.5-0.9,0.2-1.9,0-2.8c-0.4-1.6-1.2-2.9-2.4-3.9
			c-0.2-0.2-0.7-0.4-0.4-0.8c0.4-0.6,0.7,0,1,0.2C42,221.6,42.6,222.3,43.2,223z M35.8,235.8c-1.8,0-3.4-0.7-5.1-1.2
			C31.2,236.7,32.4,237,35.8,235.8z M19.1,236.4c0,0,0.1-0.1,0.1-0.1c-0.1,0-0.2-0.1-0.2-0.1c0,0-0.1,0.1-0.1,0.1
			C18.9,236.3,19,236.4,19.1,236.4z"/>
		<path class="stt4" d="M69.7,186.1c0,1.7-0.3,3.3-1.2,4.8c-1.6,2.7-4.3,3-6.5,0.8c-2.7-2.8-3.4-8.8-1.3-12.1
			c1.6-2.5,4.2-2.8,6.2-0.7C68.9,180.9,69.7,183.4,69.7,186.1z M64.2,185.2c-0.4,0.2-0.7,0.4-0.9,0.6c-0.5,0.6-1.6,0.9-1,2
			c0.5,1,1.2,1.9,2.4,2.1c1.1,0.1,1.8-0.5,2.3-1.4c1.1-2,0.6-5.6-1.1-7.1c-0.7-0.6-1.5-0.9-2.4-0.5c-1.1,0.6-1.6,1.6-1.7,2.7
			c0,1.2,1.1,0.7,1.7,1C63.7,184.8,63.8,184.9,64.2,185.2z"/>
		<path class="stt2" d="M55.4,181.9c-0.6-3.4-0.3-6.5,2.4-8.7c2.1-1.7,4.5-1.3,6.9-0.1C58.4,172.6,56,176.2,55.4,181.9z"/>
		<path class="stt5" d="M55.2,165.6c-0.1,0.1-0.3,0.2-0.4,0.1c-0.2-0.2-0.1-0.4,0.1-0.5C55,165.4,55.1,165.5,55.2,165.6z"/>
		<path class="stt3" d="M64.2,185.2c-0.4-0.3-0.6-0.4-0.7-0.5c-0.6-0.3-1.8,0.1-1.7-1c0-1.2,0.6-2.2,1.7-2.7c0.9-0.5,1.7-0.1,2.4,0.5
			c1.7,1.5,2.2,5.1,1.1,7.1c-0.5,0.9-1.2,1.5-2.3,1.4c-1.2-0.2-1.9-1.1-2.4-2.1c-0.6-1.1,0.5-1.4,1-2
			C63.5,185.6,63.9,185.4,64.2,185.2z"/>
	</g>
</g>
<g id="green">
	<g>
		<path class="stt6" d="M193.7,143.4c-1.6,0.1-1.8,1-1.9,2.4c-0.1,3.8-1,7.5-2.5,11c-0.9-2.1-2.6-3.2-4.8-3.7
			c-3.4-0.8-6.6-0.5-9.9,0.4c-5.4,1.5-9.7,4.8-13.9,8.2c-0.7,0.5-1.8,1-1.4,2c0.3,1,1.4,0.4,2.2,0.6c0.1,0,0.1,0.1,0.3,0.2
			c-0.7,0.3-1.2,0.5-1.8,0.7c-3.1,1.2-5.8,2.9-8.4,4.8c-0.5,0.4-1,0.8-0.8,1.5c0.2,0.7,0.8,0.8,1.4,0.8c1,0,2.1,0,3.1,0
			c-2.2,1.2-4.3,2.3-6.1,4c-0.7-1-1.5-1.9-2.4-2.7c-0.3-0.2-0.6-0.8-1-0.3c-0.5,0.5,0,0.8,0.3,1.1c1.4,1.3,2.5,2.7,2.8,4.7
			c-1.4,1.1-0.3,2.1,0,3.2l0,0c-0.2,0-0.3,0.1-0.5,0.1c-11.3,1.4-22.3,0.5-32.5-5.2c-5.1-2.9-9.2-6.8-12.7-11.4
			c-0.3-0.4-0.7-0.7-0.6-1.2l0.1-0.1c2.1,1.3,4.2,2.7,6.4,3.8c8.2,4.2,17.4,3,24.4-3.1c1.9-1.6,3.5-3.5,5-5.5
			c0.5-0.8,0.7-1.2-0.4-1.7c-6.6-3-12.7-6.7-19.6-9c-0.7-0.2-1.5-0.4-1.8-1.2c1.8,0,3.5,0,5.5,0c-1.8-0.9-3.6-1.2-5.1-2.3
			c-0.4-0.3-1.1-0.5-0.9-1.2c0.2-0.5,0.8-0.4,1.2-0.4c2.2-0.3,4.3,0.4,6.9,0.4c-2-1.1-3.7-2-5.3-3c-0.5-0.3-1.3-0.7-1.1-1.5
			c0.2-0.8,1.1-0.7,1.7-0.7c1.2-0.1,2.3,0.1,3.5,0.3c0.4,0.1,0.9,0.5,1.2-0.2c0.4,0.3,0.7,0.6,1.1,0.8c5.7,2.9,11.4,5.9,17.1,8.8
			c0.6,0.3,0.8,0.1,1-0.5c0.8-2.8,1.9-5.6,2.1-8.5c0.9-2.8,1.7-5.6,2.6-8.4c0.1-0.2,0.1-0.3,0.2-0.5c0.1-0.3,0.2-0.6,0.3-0.9
			c0.2-0.2,0.5-0.4,0.6-0.6c1.9-4.7,5.2-8.3,9.1-11.3c2.6-2,5.3-4,8.6-4.6c10-0.4,16.5,4.8,21.3,12.9c1,1.7,1.8,3.6,2.2,5.6
			c-1.8,0.8-3.1,2.2-3.8,4c-1.3,3.5,1.1,7,4.8,7.1C192.3,143.4,193,143.4,193.7,143.4z M168,131.1c-0.1,3.1,0.6,5.9,2.6,8.2
			c2.6,3.2,6.3,2.8,8.1-0.9c2-4,1.2-10.1-1.9-13.4c-2.4-2.6-5.6-2.3-7.4,0.7C168.3,127.4,167.9,129.3,168,131.1z M163.3,129
			c0.8-7.2,2.9-11.2,10.9-10.7c-2.4-1.7-6-1.8-8-0.1C163.2,120.4,161.8,125.4,163.3,129z"/>
		<path class="stt7" d="M149.1,176.5c1.8-1.7,3.9-2.8,6.1-4c-1,0-2.1,0-3.1,0c-0.6,0-1.2-0.1-1.4-0.8c-0.2-0.7,0.3-1.1,0.8-1.5
			c2.6-2,5.3-3.7,8.4-4.8c0.6-0.2,1.2-0.5,1.8-0.7c-0.2-0.1-0.2-0.2-0.3-0.2c-0.7-0.2-1.9,0.5-2.2-0.6c-0.3-1,0.8-1.5,1.4-2
			c4.2-3.4,8.5-6.7,13.9-8.2c3.3-0.9,6.6-1.2,9.9-0.4c2.2,0.5,3.9,1.6,4.8,3.7c-4.5,10.9-13,17.5-23.8,21.4
			c-3.7,1.3-7.4,2.7-11.4,3.2c-0.3,0.1-0.6,0.2-1,0.4c-1,0.1-2,0.2-2.9,0.3C150.2,180.2,150.1,178.2,149.1,176.5z"/>
		<path class="stt8" d="M145.6,140.1c-0.2,3-1.3,5.7-2.1,8.5c-0.2,0.6-0.4,0.8-1,0.5c-5.7-2.9-11.4-5.9-17.1-8.8
			c-0.4-0.2-0.7-0.6-1.1-0.8c-0.8-0.9-0.1-0.8,0.5-0.7c1.4,0.2,2.9,0.5,4.3,0.6c-1.9-1.3-4.2-1.8-5.5-4.1c2.7-0.6,5,0.3,7.3,1
			c0.2-0.9-0.5-1-0.9-1.3c-0.8-0.6-1.7-1.1-2.4-1.8c-0.7-0.6-1.9-1.1-1.4-2.1c0.5-0.9,1.7-0.6,2.6-0.4c3.2,0.6,6,2.2,8.6,4
			C140.3,136.5,142.9,138.3,145.6,140.1z"/>
		<path class="stt8" d="M193.7,143.4c-0.7,0-1.4,0-2.1,0c-3.7,0-6.1-3.5-4.8-7.1c0.7-1.8,1.9-3.2,3.8-4c0.8,1.2,2,0.9,3.1,0.7
			c3.6-0.6,6.7-2.1,8.9-5.2c0.1-0.2,0.3-0.4,0.4-0.6c0,0,0.1,0,0.2,0c0,4.4-3.8,9.2-8.7,11.1c2.2,1.1,4.9,1,12.2-0.7
			C202.9,141.6,198.6,143.1,193.7,143.4z"/>
		<path class="stt7" d="M167,113.8c-3.4,0.6-6,2.6-8.6,4.6c-4,3-7.3,6.6-9.1,11.3c-0.1,0.2-0.4,0.4-0.6,0.6c-0.1-2,0.9-3.8,1.6-5.5
			c2.4-5.6,5.5-10.7,9.7-15.1c0.4-0.4,0.8-0.7,1.2-1.1c0.4-0.3,0.8-0.5,1.2-0.7c0.7,0.6-0.3,1.3,0.2,1.9c1.7-1.3,3.5-2.4,5.5-3
			c0.4-0.1,0.9-0.6,1.3-0.1c0.3,0.4-0.2,0.9-0.4,1.3c-0.2,0.3-0.5,0.7-0.9,1.3c1.6-0.5,2.9-0.9,4.2-1.3c0.9-0.3,1.9-0.2,2.3,0.6
			c0.5,1.1-0.5,1.6-1.2,2.1c-1.5,0.9-3.3,1.4-4.9,2C167.9,113,167.1,112.9,167,113.8z"/>
		<path class="stt9" d="M153.2,181.8c0.3-0.1,0.6-0.2,1-0.4c-0.5,4.2-3,6.9-6.7,8.4c-3.7,1.5-7.4,3.4-11.7,2.9
			c-0.8-0.1-0.8,0.3-0.8,0.9c0,0.4,0.4,1.2-0.5,1.2c-0.8,0-0.4-0.8-0.5-1.3c-0.1-0.3-0.1-0.6-0.2-1.1c-0.8,1-0.8,2.1-1.3,3
			c-0.2,0.3-0.3,0.9-0.9,0.6c-0.4-0.2-0.3-0.6-0.1-0.9c0.4-0.8,0.7-1.7,0.9-3c-1,0.9-1.6,1.5-2.3,2.1c-0.3,0.3-0.6,0.4-0.9,0
			c-0.3-0.3,0-0.5,0.2-0.7c0.4-0.5,1-0.8,1.3-1.5c-2.4-0.8-4.6-1.8-6.7-3.3c0,2,0.2,3.9-0.3,5.6c-0.1,0.4-0.2,1-0.7,0.9
			c-0.7-0.1-0.5-0.7-0.3-1.1c0.4-0.9,0.3-1.8,0.2-3.1c-0.8,1.6-1.4,3-2.5,4.1c-0.3,0.3-0.6,0.9-1.1,0.4c-0.6-0.5,0.1-0.8,0.3-1.1
			c0.6-0.8,2-1.8,1.4-2.5c-0.6-0.8-1.5,0.9-2.4,1.1c-0.4,0.1-0.8,1-1.3,0.2c-0.5-0.8,0.4-0.8,0.7-1.1c2.9-1.8,3.2-2.3,4.4-6.2
			c2.2,2.1,4.6,3.7,7.4,4.7c1.4,0.5,2.2,0.4,2.2-1.3c0-0.6,0.1-1.2,0.1-2c2.9,1.6,5.9,2.6,9.3,2.8c2.7,0.1,4.4-1.1,5.8-3.1
			c0.9-1.3,1.6-2.6,1.7-4.2c0,0,0.1-0.1,0.1-0.1c0-0.1,0-0.1-0.1-0.2c0,0,0,0,0,0c0.5-1.1,0.4-2.2,0-3.2c-0.2-2-1.3-3.4-2.8-4.7
			c-0.3-0.3-0.9-0.6-0.3-1.1c0.4-0.5,0.7,0.1,1,0.3c0.9,0.8,1.7,1.7,2.4,2.7c0.9,1.8,1.1,3.7,1.1,5.6c-0.5,2.1-1.1,4.1-2.4,5.8
			c-0.1,0.2-0.2,0.3-0.3,0.5c0.3,0.1,0.5,0.1,0.7-0.2C150.9,186.9,152.4,184.6,153.2,181.8z M141.1,191.1c-2.6-0.1-4.7-0.7-6.7-1.4
			c-0.1,1.8,0.8,2.3,2.3,2.1C138.1,191.6,139.5,191.6,141.1,191.1z"/>
		<path class="stt7" d="M148.4,131.2c-0.1,0.2-0.1,0.3-0.2,0.5C148.3,131.6,148.3,131.4,148.4,131.2z"/>
		<path class="stt7" d="M148.9,182.5c0,0.1,0.1,0.1,0.1,0.2c0,0,0,0.1-0.1,0.1c-0.2-0.1-0.3-0.1-0.5-0.2
			C148.6,182.6,148.7,182.5,148.9,182.5z"/>
		<path class="stt4" d="M168,131.1c-0.1-1.9,0.3-3.7,1.4-5.4c1.9-3,5-3.3,7.4-0.7c3.1,3.3,3.9,9.4,1.9,13.4c-1.9,3.7-5.5,4.1-8.1,0.9
			C168.6,137,167.9,134.3,168,131.1z M173.3,132c-0.7,0.7-1.3,1.3-1.9,1.8c-0.3,0.2-0.7,0.4-0.5,0.8c0.4,1.3,1.2,2.5,2.6,2.9
			c1.1,0.4,2.1-0.1,2.8-1c1.8-2.3,1.1-7.1-1.2-8.9c-0.9-0.7-1.8-0.9-2.8-0.3c-1.2,0.8-1.8,2-1.7,3.3c0.1,1,1.3,0.6,2,1
			C172.7,131.7,172.9,131.8,173.3,132z"/>
		<path class="stt8" d="M163.3,129c-1.4-3.6,0-8.6,2.8-10.8c2.1-1.6,5.6-1.6,8,0.1C166.1,117.9,164,121.8,163.3,129z"/>
		<path class="stt7" d="M148.8,179.3c0.4,1.1,0.5,2.1,0,3.2C148.5,181.4,147.4,180.3,148.8,179.3z"/>
		<path class="stt10" d="M148.3,188.3c-0.2,0.3-0.4,0.3-0.7,0.2c0.1-0.2,0.2-0.3,0.3-0.5C148,188,148.1,188.1,148.3,188.3z"/>
		<path class="stt3" d="M173.3,132c-0.4-0.2-0.6-0.2-0.8-0.3c-0.7-0.3-1.9,0-2-1c-0.1-1.3,0.5-2.6,1.7-3.3c1-0.6,1.9-0.4,2.8,0.3
			c2.3,1.8,3,6.6,1.2,8.9c-0.7,0.9-1.7,1.4-2.8,1c-1.4-0.5-2.1-1.6-2.6-2.9c-0.1-0.4,0.3-0.6,0.5-0.8
			C172,133.2,172.6,132.7,173.3,132z"/>
	</g>
</g>
<g id="blue">
	<g>
		<path class="stt11" d="M83.1,58.9c1.5-4.8,3-9.7,4.4-14.5c1.5-2,2-4.5,3.3-6.6c4.9-8.2,12-14.1,20.3-18.7c1.5-0.8,3-1.9,4.9-1.9
			c8.9-1.1,16.6,1.8,23.6,7.2c7.1,5.5,11.8,12.8,14.5,21.3c0.1,0.2,0.1,0.5,0.1,0.7c-1.9,1.2-3.6,2.6-4.8,4.6
			c-1.7,2.8-1.8,5.8-0.5,8.6c1.4,3,4.2,4.1,7.4,4.2c0.9,0,1.9-0.3,2.8,0.2c-0.2,0-0.5,0.1-0.7,0.1c-1.7-0.2-2.1,0.7-2.1,2.3
			c-0.2,6.7-1.5,13.2-4.3,19.3c-0.6-3.6-3.2-5-6.3-6c-4.1-1.2-8.3-1.4-12.4-0.7c-11.2,2-20,8.5-28.2,15.8c-1.1,1-0.8,1.9,0.7,2.1
			c1.2,0.1,2.4,0,3.6,0c-0.3,0.5-0.7,0.6-1.1,0.8c-5.7,1.9-10.9,4.9-15.7,8.5c-0.8,0.6-1.9,1.3-1.5,2.4c0.3,1.1,1.6,1,2.6,1.2
			c1.1,0.1,2.1,0,3.2,0c0.7,0,1.4,0,2.2,0c-3.7,2-7.6,3.6-10.4,6.8c-1.1-1.7-2.2-3.5-3.9-4.7c-0.4-0.3-0.8-1.2-1.6-0.3
			c-0.7,0.9,0.1,1.1,0.5,1.5c2.4,2,4,4.4,4.6,7.5c-1.4,1.6-1.4,2.7,0.1,4.7c0,0.2,0,0.3,0,0.5c-7.3,0.9-14.7,1.4-22.1,0.8
			c-21.2-1.8-38.5-10.5-51.1-28c-0.2-0.3-0.4-0.6-0.5-0.9c0.1-0.1,0.2-0.2,0.3-0.3c2.1,1.4,4.1,2.7,6.2,4.1
			c16.5,10.8,35.4,6.8,47.7-7.9c1.3-1.5,2.3-3.1,3.5-4.7c0.5-0.7,0.3-1-0.4-1.3c-10.7-4.7-20.7-11-31.8-14.6
			c-1.2-0.4-2.3-0.8-3.3-2.2c3.1,0.1,6.1,0.4,9.2,0.3c-0.4-0.7-1.1-0.7-1.6-0.9c-2.6-0.9-5.2-1.7-7.3-3.5c-0.4-0.3-1-0.6-0.8-1.2
			c0.2-0.5,0.8-0.4,1.2-0.5c2.7-0.6,5.4,0,8.1,0.3c1.2,0.1,2.3,0.2,3.6-0.1c-0.9-0.4-1.8-0.9-2.7-1.3c-2.1-1-4.3-2.1-6.1-3.5
			c-0.6-0.5-1.4-1-1.2-1.8c0.2-1,1.3-1,2-1.1c2.4-0.4,4.7,0.2,7,0.7c0.8,0.2,1.6,0.3,2.4,0.5c1,0.5,2.1,0.9,3.1,1.4
			c8.1,3.9,16,8.1,23.9,12.3c1.1,0.6,1.7,0.6,2.1-0.8C81.2,67.5,82.2,63.2,83.1,58.9z M137.2,47.2c-0.1-3.9-1.4-8.2-4.4-11.9
			c-1.4-1.7-3.1-3-5.3-3.2c-3.3-0.3-5.8,1.4-7.5,4.9c-1.8,4-2.1,8.1-1.2,12.3c0.8,3.6,2,6.9,4.9,9.4c3.9,3.5,8.4,2.8,11.1-1.6
			C136.5,54.4,137.2,51.3,137.2,47.2z M127.8,24c-4.8-2.8-10-2.2-13.6,1.5c-4,4.2-4.1,9.4-3.5,14.7c0,0.1,0.2,0.1,0.3,0.2
			C112.2,27.9,117.5,23.7,127.8,24z"/>
		<path class="stt12" d="M88.7,116.7c2.8-3.2,6.6-4.8,10.4-6.8c-0.7,0-1.4,0-2.2,0c-1.1,0-2.1,0.1-3.2,0c-1-0.1-2.3,0-2.6-1.2
			c-0.3-1.1,0.8-1.8,1.5-2.4c4.8-3.6,9.9-6.6,15.7-8.5c0.4-0.1,0.7-0.3,1.1-0.8c-1.2,0-2.4,0.1-3.6,0c-1.6-0.2-1.9-1.1-0.7-2.1
			c8.3-7.3,17-13.8,28.2-15.8c4.2-0.8,8.4-0.6,12.4,0.7c3,0.9,5.7,2.4,6.3,6c-3.2,7.8-7.9,14.5-14.2,20
			c-11.6,10.2-25.7,14.9-40.3,18.4c-0.2,0-0.4,0-0.5,0c-0.6,0.1-1.1,0.2-1.7,0.4c-1.7,0.3-3.3,0.7-5,1c0-2,0-4-0.4-6
			c0.7-0.1,1.4-0.2,1.9-1.1c-0.9,0-1.6,0-2.3,0C89.3,117.9,89,117.3,88.7,116.7z"/>
		<path class="stt13" d="M83.1,58.9c-0.9,4.3-2,8.6-3.4,12.8c-0.5,1.4-1,1.4-2.1,0.8c-7.9-4.3-15.9-8.4-23.9-12.3
			c-1-0.5-2-0.9-3.1-1.4c-0.7-0.6-1.7-1-2-2.4c3.3,0.6,6.4,1.2,9.7,1.8c-0.8-0.9-1.8-1.1-2.7-1.5c-2.2-1.1-4.4-2.1-6.1-3.8
			c-0.4-0.4-1.1-0.8-0.8-1.4c0.3-0.7,1.1-0.6,1.7-0.6c2.9-0.1,5.6,0.8,8.4,1.5c0.7,0.2,1.5,0.4,2.7,0.2c-2.3-1.6-4.5-2.8-6.4-4.4
			c-0.7-0.6-1.4-1.1-2-1.8c-1.3-1.4-1-2.1,0.8-2.5c1.4-0.3,2.7,0.1,4,0.4c6.1,1.6,11.1,5.1,16.2,8.6C77.1,54.8,80.1,56.8,83.1,58.9z
			"/>
		<path class="stt13" d="M159.1,64.1c-0.9-0.5-1.9-0.2-2.8-0.2c-3.2-0.1-6-1.2-7.4-4.2c-1.4-2.9-1.2-5.8,0.5-8.6
			c1.2-2,2.9-3.4,4.8-4.6c1.1,1.6,2.7,1.5,4.3,1.3c6.1-1,11.4-3.4,15-8.7c0.1-0.1,0.3-0.2,0.4-0.3c1.1,6-6.6,15-15.1,17.6
			c6.9,1.3,13.5,1.5,19.9-1.3c0.2-0.1,0.5-0.3,0.8,0l0,0c-1.9,2.8-4.7,4.5-7.7,6C167.7,62.8,163.5,63.8,159.1,64.1z"/>
		<path class="stt12" d="M116.1,17.2c-1.9,0-3.4,1-4.9,1.9c-8.3,4.6-15.4,10.5-20.3,18.7c-1.3,2.1-1.9,4.6-3.3,6.6
			c-0.2-2.3,0.8-4.4,1.6-6.4c3.9-10.3,9.3-19.8,17.1-27.7c1-1,2.2-2,3.6-2.6c0.5,1.2-0.7,2.1-0.3,3.4c3.5-2.6,7-4.9,11.4-5.5
			c-0.4,1.9-1.4,3.3-2.9,4.4c0.7,0.4,1.2,0,1.7-0.2c2-0.8,4.1-1.6,6.3-1.9c1.1-0.2,2.4-0.2,2.9,1c0.6,1.2-0.3,2.2-1.1,2.9
			c-1.4,1.1-3.1,1.6-4.8,2.3c-1.7,0.7-3.5,1.2-5.2,1.9C117.2,16.2,116.4,16.3,116.1,17.2z M109.3,11.4L109.3,11.4L109.3,11.4
			L109.3,11.4z"/>
		<path class="stt14" d="M88.7,116.7c0.3,0.6,0.6,1.2,0.8,1.8c0,0.4,0,0.8,0.3,1.1c0.3,2,0.4,4,0.4,6c-0.7,3.7-2,7-4.6,9.9
			c3.7-0.3,8.3-5.6,9.6-10.9c0.6-0.1,1.1-0.2,1.7-0.4c-1.5,7-5.7,11.7-12.5,13.9c-2.6,0.9-5.1,2.2-7.7,2.9c-2.9,0.8-5.9,1.2-8.9,1
			c-1.2-0.1-1.8,0.1-1.5,1.5c0.1,0.4,0,0.8,0.1,1.2c0.1,0.7-0.3,0.8-0.9,0.8c-0.6,0-0.7-0.3-0.7-0.8c0-0.6,0-1.2-0.1-1.8
			c0-0.4,0.2-1.1-0.5-1.1c-0.6,0-0.5,0.6-0.6,0.9c-0.5,1.3-0.9,2.7-1.4,4c-0.2,0.5-0.4,0.9-1.2,0.5c-0.8-0.4-0.5-0.8-0.3-1.3
			c0.6-1.5,1.4-2.9,1-4.9c-0.9,1-1.8,2-2.8,3c-0.4,0.4-0.8,1.4-1.6,0.3c-0.7-0.9,0.2-1.1,0.6-1.5c0.6-0.6,1.3-1.2,2.2-2
			c-4.3-1.4-8-2.9-11.6-5.7c0.7,3.3,0.6,6.1-0.2,9c-0.1,0.3-0.2,0.7-0.3,1c-0.1,0.4-0.1,1-0.9,0.8c-0.7-0.2-0.8-0.6-0.6-1.3
			c0.7-2,0.9-4.1,0.6-6.2c-0.9,2.3-1.8,4.6-3.5,6.4c-0.5,0.5-1,1-1.5,1.5c-0.4,0.4-0.7,0.6-1.1,0c-0.4-0.5-0.4-0.7,0.1-1.2
			c1.5-1.3,2.6-3,3.5-4.9c0.1-0.3,0.5-0.8,0.1-1.1c-0.5-0.4-0.7,0.2-1,0.4c-1.4,1.3-3,2.3-4.7,3.2c-0.5,0.3-0.8,0.3-1.1-0.3
			c-0.2-0.5-0.3-0.8,0.3-1.1c4.4-1.9,7.1-5.2,7.8-10c0-0.1,0.2-0.1,0.3-0.2c3.7,3.8,8.1,6.3,13.2,7.9c1.1,0.3,1.5,0.1,1.7-0.9
			c0.3-1.5,0.4-3,0.3-4.6c0.7-0.3,1.1,0.3,1.5,0.6c5.1,2.8,10.5,4.1,16.4,3.5c0.6-0.1,1.2-0.1,1.7-0.4c4-2.8,6.7-6.4,7.3-11.4
			c0-0.2,0-0.3,0.1-0.5c0.5-1.6,0.3-3.1-0.1-4.7c-0.6-3.1-2.3-5.5-4.6-7.5c-0.4-0.3-1.3-0.6-0.5-1.5c0.7-0.9,1.2,0,1.6,0.3
			C86.5,113.3,87.6,115,88.7,116.7z M65,136.9c0.3,1.1,0.6,1.8,0.7,2.5c0.1,0.8,0.4,1.1,1.2,1.1c3,0.1,6,0,9.4-1
			C72.2,139.1,68.6,138.5,65,136.9z M45.1,138.9c0,0-0.1-0.1-0.1-0.1c-0.1,0-0.2,0.1-0.2,0.1c0,0,0.1,0.1,0.1,0.1
			C45,139,45,139,45.1,138.9z"/>
		<path class="stt11" d="M14.7,97.8c-0.1-0.2-0.2-0.3-0.4-0.5c0.3-0.2,0.5-0.1,0.6,0.2C14.9,97.6,14.8,97.7,14.7,97.8z"/>
		<path class="stt6" d="M102.6,164.7c-0.1-0.1-0.2-0.1-0.2-0.2c0,0,0.1-0.1,0.1-0.1C102.5,164.5,102.6,164.6,102.6,164.7
			C102.7,164.7,102.6,164.7,102.6,164.7z"/>
		<path class="stt13" d="M179.4,54.9c0-0.1,0-0.2,0-0.3c0.1,0,0.1,0,0.2,0C179.5,54.8,179.5,54.8,179.4,54.9
			C179.4,54.9,179.4,54.9,179.4,54.9z"/>
		<path class="stt15" d="M137.2,47.2c0,4-0.7,7.1-2.4,9.9c-2.7,4.4-7.2,5.1-11.1,1.6c-2.8-2.5-4.1-5.8-4.9-9.4
			C118,45.1,118.2,41,120,37c1.6-3.5,4.2-5.2,7.5-4.9c2.3,0.2,3.9,1.5,5.3,3.2C135.8,39,137.1,43.3,137.2,47.2z M127.3,45.8
			c-1.1,1-1.9,1.9-3,2.6c-1.3,0.9-1.4,1.9-0.6,3.1c0.5,0.8,1,1.5,1.6,2.1c2.1,1.9,4.6,1.7,6.3-0.6c2.7-3.7,1.7-11.2-1.9-14
			c-1.9-1.5-4.3-1.2-5.8,0.8c-0.6,0.8-0.9,1.6-1.2,2.5c-0.5,1.4-0.5,2.5,1.5,2.6C125.2,45.1,126.1,45.5,127.3,45.8z"/>
		<path class="stt13" d="M127.8,24c-10.3-0.3-15.6,3.9-16.8,16.4c-0.1,0-0.3-0.1-0.3-0.2c-0.6-5.3-0.5-10.5,3.5-14.7
			C117.7,21.7,122.9,21.2,127.8,24z"/>
		<path class="stt12" d="M88.4,120.7c0.4,1.6,0.6,3.1,0.1,4.7C87,123.5,86.9,122.3,88.4,120.7z"/>
		<path class="stt11" d="M89.9,119.6c-0.3-0.3-0.4-0.7-0.3-1.1c0.7,0,1.4,0,2.3,0C91.3,119.4,90.6,119.5,89.9,119.6z"/>
		<polygon class="stt5" points="109.3,11.4 109.2,11.4 109.2,11.3 		"/>
		<path class="stt5" d="M45.1,138.9c-0.1,0-0.2,0.1-0.2,0.1c0,0-0.1-0.1-0.1-0.1c0.1,0,0.2-0.1,0.2-0.1
			C45,138.8,45.1,138.9,45.1,138.9z"/>
		<path class="stt9" d="M127.3,45.8c-1.2-0.3-2.1-0.7-3-0.7c-2-0.1-1.9-1.2-1.5-2.6c0.3-0.9,0.6-1.8,1.2-2.5c1.5-2,3.8-2.3,5.8-0.8
			c3.6,2.8,4.6,10.3,1.9,14c-1.7,2.3-4.2,2.5-6.3,0.6c-0.7-0.6-1.1-1.3-1.6-2.1c-0.8-1.2-0.7-2.2,0.6-3.1
			C125.4,47.7,126.2,46.8,127.3,45.8z"/>
	</g>
</g>
</svg>
