<?xml version="1.0" encoding="utf-8"?>
<!-- Generator: Adobe Illustrator 22.0.1, SVG Export Plug-In . SVG Version: 6.00 Build 0)  -->
<svg version="1.1" xmlns="http://www.w3.org/2000/svg" xmlns:xlink="http://www.w3.org/1999/xlink" x="0px" y="0px" width="2383px"
	 height="1106.7px" viewBox="0 0 2383 1106.7" style="enable-background:new 0 0 2383 1106.7;" xml:space="preserve">
<style type="text/css">
	.moneyTranSt0{fill:#1B384C;}
	.moneyTranSt1{fill:url(#SVGID_1_);}
	.moneyTranSt2{fill:#6E8191;}
	.moneyTranSt3{fill:#E7F5F7;}
	.moneyTranSt4{fill:#262E3C;}
	.moneyTranSt5{fill:#F55F13;}
	.moneyTranSt6{fill:#3D4859;}
	.moneyTranSt7{fill:#FF793E;}
	.moneyTranSt8{fill:#919396;}
	.moneyTranSt9{fill:#FFFFFF;}
	.moneyTranSt10{fill:#00ABEC;}
	.moneyTranSt11{fill:#003A6B;}
	.moneyTranSt12{fill:none;stroke:#FFFFFF;stroke-miterlimit:10;}
	.moneyTranSt13{fill:url(#SVGID_2_);}
	.moneyTranSt14{fill:url(#SVGID_3_);}
	.moneyTranSt15{fill:url(#SVGID_4_);}
	.moneyTranSt16{fill:url(#SVGID_5_);}
	.moneyTranSt17{fill:url(#SVGID_6_);}
	.moneyTranSt18{fill:url(#SVGID_7_);}
	.moneyTranSt19{fill:#818386;}
	.moneyTranSt20{fill:url(#SVGID_8_);}
	.moneyTranSt21{fill:url(#SVGID_9_);}
	.moneyTranSt22{fill:url(#SVGID_10_);}
	.moneyTranSt23{fill:url(#SVGID_11_);}
	.moneyTranSt24{fill:url(#SVGID_12_);}
	.moneyTranSt25{fill:url(#SVGID_13_);}
	.moneyTranSt26{fill:#2B424C;}
	.moneyTranSt27{fill:#1D323B;}
	.moneyTranSt28{fill:url(#SVGID_14_);}
	.moneyTranSt29{fill:url(#SVGID_15_);}
	.moneyTranSt30{fill:url(#SVGID_16_);}
	.moneyTranSt31{fill:url(#SVGID_17_);}
	.moneyTranSt32{fill:url(#SVGID_18_);}
	.moneyTranSt33{fill:url(#SVGID_19_);}
	.moneyTranSt34{fill:url(#SVGID_20_);}
	.moneyTranSt35{fill:url(#SVGID_21_);}
	.moneyTranSt36{fill:url(#SVGID_22_);}
	.moneyTranSt37{opacity:0.3;fill:#231F20;enable-background:new    ;}
	.moneyTranSt38{fill:url(#SVGID_23_);}
	.moneyTranSt39{fill:url(#SVGID_24_);}
	.moneyTranSt40{fill:url(#SVGID_25_);}
	.moneyTranSt41{fill:url(#SVGID_26_);}
	.moneyTranSt42{fill:url(#SVGID_27_);}
	.moneyTranSt43{fill:url(#SVGID_28_);}
	.moneyTranSt44{fill:url(#SVGID_29_);}
	.moneyTranSt45{fill:url(#SVGID_30_);}
	.moneyTranSt46{fill:url(#SVGID_31_);}
	.moneyTranSt47{fill:url(#SVGID_32_);}
	.moneyTranSt48{fill:url(#SVGID_33_);}
	.moneyTranSt49{fill:url(#SVGID_34_);}
	.moneyTranSt50{fill:url(#SVGID_35_);}
	.moneyTranSt51{fill:url(#SVGID_36_);}
	.moneyTranSt52{fill:url(#SVGID_37_);}
	.moneyTranSt53{fill:url(#SVGID_38_);}
	.moneyTranSt54{fill:url(#SVGID_39_);}
	.moneyTranSt55{fill:url(#SVGID_40_);}
	.moneyTranSt56{fill:url(#SVGID_41_);}
	.moneyTranSt57{fill:url(#SVGID_42_);}
	.moneyTranSt58{fill:url(#SVGID_43_);}
	.moneyTranSt59{fill:url(#SVGID_44_);}
	.moneyTranSt60{fill:url(#SVGID_45_);}
	.moneyTranSt61{fill:url(#SVGID_46_);}
	.moneyTranSt62{fill:url(#SVGID_47_);}
	.moneyTranSt63{fill:url(#SVGID_48_);}
	.moneyTranSt64{fill:url(#SVGID_49_);}
	.st65{fill:url(#SVGID_50_);}
	.moneyTranSt66{opacity:0.3;}
	.moneyTranSt67{fill:#231F20;}
	.moneyTranSt68{fill:url(#SVGID_51_);}
	.moneyTranSt69{fill:url(#SVGID_52_);}
	.moneyTranSt70{fill:url(#SVGID_53_);}
	.moneyTranSt71{fill:#DA2512;}
	.moneyTranSt72{fill:url(#SVGID_54_);}
	.moneyTranSt73{fill:#9E774C;}
	.moneyTranSt74{fill:#DD8B66;}
	.moneyTranSt75{fill:#5E005E;}
	.moneyTranSt76{fill:#390700;}
	.moneyTranSt77{fill:#EC2A7B;}
	.moneyTranSt78{fill:#9B1069;}
	.moneyTranSt79{fill:#E4E5E6;}
	.moneyTranSt80{fill:#A55F2B;}
	.moneyTranSt81{fill:#006838;}
	.moneyTranSt82{fill:#00130F;}
	.moneyTranSt83{fill:#EDA677;}
	.moneyTranSt84{fill:#F7EB32;}
	.moneyTranSt85{fill:#8BC43F;}
	.moneyTranSt86{fill:#00AEEF;}
	.moneyTranSt87{stroke:#00AEEF;stroke-width:4;stroke-miterlimit:10;}
</style>
<g id="Layer_2">
</g>
<g id="Layer_1">
	<g id="payism_x5F_global">
		<g>
			<path class="moneyTranSt0" d="M2301.9,1030.5c0,17.1-14.2,31-31.6,31h-491.4c-17.4,0-31.6-14-31.6-31V43.8c0-17.1,14.2-31,31.6-31h491.4
				c17.4,0,31.6,14,31.6,31V1030.5z"/>
			
				<linearGradient id="SVGID_1_" gradientUnits="userSpaceOnUse" x1="2019.5558" y1="879.8735" x2="2019.5558" y2="298.9999" gradientTransform="matrix(1 0 0 -1 0 1108)">
				<stop  offset="0" style="stop-color:#004392"/>
				<stop  offset="1" style="stop-color:#27A8DF"/>
			</linearGradient>
			<polygon class="moneyTranSt1" points="2246.3,128.6 2233,128.6 2207.7,128.6 2178.8,128.6 2154.7,128.6 2153,128.6 2120.7,128.6 
				2039.5,128.6 2011.3,128.6 1982.5,128.6 1955.4,128.6 1914.9,128.6 1889.7,128.6 1810.3,128.6 1807.5,128.6 1782.3,128.6 
				1767.8,128.6 1767.8,240.4 1767.7,240.4 1767.7,270.5 1767.8,270.6 1767.8,353.7 1767.8,353.7 1767.8,454.3 1767.7,454.3 
				1767.7,479.2 1767.8,479.2 1767.7,728.9 1767.7,728.9 1767.7,751.5 1767.7,751.5 1767.7,867 1767.7,867 1767.7,897.1 
				1767.7,897.1 1767.7,972.2 1769.5,972.2 1795.5,972.2 1853.2,972.2 1886.1,972.2 1886.1,972.2 1889.7,972.2 1911,972.2 
				1914.9,972.2 1939.8,972.2 1943.5,972.2 1965.4,972.2 2042.3,972.2 2043.5,972.2 2070.9,972.2 2139.1,972.2 2167,972.2 
				2173.2,972.2 2206.7,972.2 2271.4,972.2 2271.4,903.3 2271.4,857.2 2271.4,846.3 2271.4,832.3 2271.4,805.2 2271.4,793.4 
				2271.4,762.7 2271.4,479.2 2271.4,454.3 2271.4,388.6 2271.4,353.7 2271.4,204.8 2271.4,177.1 2271.4,128.6 			"/>
			<path class="moneyTranSt2" d="M2068.8,92h-91.7c-2.5,0-4.5-2-4.5-4.5v-8.1c0-2.5,2-4.5,4.5-4.5h91.7c2.5,0,4.5,2,4.5,4.5v8.1
				C2073.3,90,2071.3,92,2068.8,92z"/>
			<g>
				<path class="moneyTranSt2" d="M2093.6,190.1h-157.2c-4.9,0-8.7-3.6-8.5-8l0,0c0.2-4.4,4.3-8,9.2-8h156.1c4.9,0,8.9,3.6,9.1,8l0,0
					C2102.4,186.5,2098.5,190.1,2093.6,190.1z"/>
				<path class="moneyTranSt4" d="M1809.2,291.8c-3.8,39.6-40.6,72.8-82.1,72.8s-69.9-33.2-63.6-72.8l0,0c0-0.1,0.1-0.2,0.1-0.4l29.2-48.9
					c14.6-11.9,33.1-19.2,52.4-19.2C1784.1,223.3,1812.8,253.4,1809.2,291.8z"/>
				<path class="moneyTranSt5" d="M1954.9,291.2c-1.3,39.6-35.9,72.8-77.4,72.8s-72-33.2-68.2-72.8c3.7-38.3,38.1-68.4,77.2-68.4
					C1925.4,222.8,1956.1,252.9,1954.9,291.2z"/>
				<path class="moneyTranSt4" d="M2100,291.2c1.3,39.6-31.3,72.8-72.8,72.8c-41.5,0-74.1-33.2-72.8-72.8c1.2-38.3,33.8-68.4,72.8-68.4
					C2066.2,222.8,2098.8,252.9,2100,291.2z"/>
				<path class="moneyTranSt5" d="M2245.4,291.2c3.8,39.6-26.7,72.8-68.2,72.8s-76.2-33.2-77.4-72.8c-1.2-38.3,29.5-68.4,68.5-68.4
					C2207.2,222.8,2241.7,252.9,2245.4,291.2z"/>
				<path class="moneyTranSt4" d="M2391.5,291.2L2391.5,291.2c6.3,39.6-22,72.8-63.4,72.8c-41.5,0-78.2-33.2-82-72.8
					c-3.7-38.3,25.1-68.4,64.1-68.4c13.3,0,26.2,3.5,37.7,9.5l43.6,58.6C2391.6,291,2391.5,291.1,2391.5,291.2z"/>
				<polygon class="moneyTranSt6" points="1862.2,130 1809.2,291.8 1663.6,291.7 1663.4,291.7 1663.6,291.4 1692.7,242.5 1759.7,130 				"/>
				<polygon class="moneyTranSt6" points="2099.9,291.7 1954.5,291.7 1964.1,130 2066.8,130 				"/>
				<polygon class="moneyTranSt7" points="2246.1,291.2 2100.3,291.2 2066.8,130 2169.6,130 				"/>
				<polygon class="moneyTranSt6" points="2391.9,291.2 2391.7,291.2 2246.1,291.2 2169.1,129.6 2271.4,129.6 2347.9,232.3 2391.7,290.9 				
					"/>
				<polygon class="moneyTranSt7" points="1955,291.2 1809.2,291.8 1862.2,130 1964.1,130 				"/>
			</g>
			<circle class="moneyTranSt8" cx="2019.6" cy="1014.9" r="32.6"/>
			<g>
				<path class="moneyTranSt9" d="M2103.3,450.9l-0.1-44.7c2.7-0.8,6.3-1.3,9.2-1.3c8.9,0,11.1,3,11.1,15.3l0.1,30.6h13.5l-0.1-32
					c0-5-0.6-9.1-1.5-12.4c3.6-1.1,8.1-1.5,10.8-1.5c8.9,0,11.1,3,11.1,15.3l0.1,30.6h13.5l-0.1-32c0-19.9-6.3-26.1-21.8-26.1
					c-6.3,0-13.7,1.5-19.7,3.7c-3.3-2.5-8-3.7-14.2-3.7c-8.8,0-18.8,2.2-25.6,4.8l0.1,53.4L2103.3,450.9z"/>
				<g>
					<g>
						<path class="moneyTranSt10" d="M2036.9,472.3h-6.8v-3.5h11v15.4c-2.2,0.7-6.5,1.1-9.4,1.1c-8.9,0-13.2-3.4-13.2-15s4.5-14.6,13.5-14.6
							c2.6,0,6.1,0.4,8.3,1l-1,3.7c-1.6-0.6-4.9-1-7-1c-6.8,0-9.3,1.4-9.3,10.9s2.5,11.2,9.2,11.2c1.7,0,3.6-0.3,4.7-0.5V472.3z"/>
						<path class="moneyTranSt10" d="M2051.4,456.4l0.1,24.8h14v3.6h-18.2l-0.1-28.4H2051.4z"/>
						<path class="moneyTranSt10" d="M2093.7,470.3c0,11.7-4.2,14.9-13.2,15c-8.9,0-13.2-3.2-13.2-14.9c0-11.6,4.2-14.7,13.2-14.7
							C2089.4,455.6,2093.7,458.8,2093.7,470.3z M2089.3,470.4c0-9.5-2.1-11.1-8.8-11.1c-6.7,0-8.7,1.6-8.7,11.1
							c0,9.2,2,11.2,8.7,11.1C2087.3,481.6,2089.4,479.6,2089.3,470.4z"/>
						<path class="moneyTranSt10" d="M2121.1,476.7c0,5.4-2.6,7.9-7.2,7.9h-14.8l-0.1-28.4h14.5c5.7,0,6.8,2.9,6.9,6.7c0,3.5-0.7,6-5.7,6.5
							C2120.1,469.7,2121.1,472.7,2121.1,476.7z M2103.3,467.9h9.7c2.4,0,3.1-1.8,3.1-4.2c0-2.6-0.7-4-3.1-4h-9.7V467.9z
							 M2113.3,481.1c2.5,0,3.4-1.8,3.4-4.8c0-3.1-1.1-5.1-3.6-5.1h-9.9v9.9H2113.3z"/>
						<path class="moneyTranSt10" d="M2143,476.7h-13.1c-0.9,2.7-1.7,5.3-2.5,7.9h-4.3c3-9,6.8-19.4,10.4-28.4h6.7
							c3.1,9.4,7.2,20.7,10.5,28.4h-4.6C2145.1,482.2,2144,479.5,2143,476.7z M2136.1,459.6c-1.7,4.4-3.4,8.9-5.1,13.5h10.7
							c-1.6-4.5-3.2-9.2-4.5-13.5H2136.1z"/>
						<path class="moneyTranSt10" d="M2157.6,456.2l0.1,24.8h14v3.6h-18.2l-0.1-28.4H2157.6z"/>
					</g>
				</g>
				<path class="moneyTranSt9" d="M1914.5,404.2c-6.5,7.7-23.2,27.5-25.7,30.8c-3.1,4.1-6.1,1.9-7.3,0.6s-15.7-18.1-15.7-18.1l1.5-6.7
					c0,0,13.4,11.3,14.5,12.5c1.2,1.2,1.9,0.4,2.6-0.2c0.7-0.6,18.6-17.1,25.8-23.8c-4.3-5.5-11.9-6.5-15.2-6.5
					c-4.2,0-17.5,0-25,0.1c-5.2,0-7.7,2.2-8.6,6.3c-0.8,3.8-14.7,69.8-16.6,79c-2,9.1,2.6,7.7,6.2,6.3c3.7-1.5,10.9-4.8,18.7-8.6
					c6.5-3.1,6.5-3.2,7.3-7.2c0-0.2,0.1-0.5,0.2-0.8c-0.5-0.2-17.1-7.3-20.2-8.6c-3.2-1.4-2.5-2.3-1.7-3.4c0.7-1,1.9-2.2,3.2-3.4
					c1.1-1.1,1.5-1.2,2.7-1.2c2.7,0,5.3,0,19,0.2l0,0c10.1,0,30.9-5.3,36.1-30C1918.1,414.2,1917,407.5,1914.5,404.2z"/>
				<polygon class="moneyTranSt9" points="2017.7,416 2017.8,451.1 2031.3,451.1 2031.2,400.5 				"/>
				<polygon class="moneyTranSt10" points="2017.6,392.7 2017.6,407.4 2029.7,392.7 				"/>
				<path class="moneyTranSt9" d="M1999.1,392.7c-6,15.2-10.4,26.1-10.4,26.1s-4.3-12.2-8.9-26h-11.7c7.1,19.2,15.1,43,15.1,43
					s-4.3,9-6.6,15.3h13.5c3.3-7.2,14.3-37.7,22.6-58.4H1999.1z"/>
				<path class="moneyTranSt9" d="M2077.4,406.1c-4.3-1.4-10.5-2.6-16.1-2.6c-6.6,0-10,0.7-10,6.4c0,3.8,2.4,5.1,11.4,5.9
					c13.4,1.4,19.2,5.5,19.2,16.6c0,14.3-9.5,18.5-23.6,18.5c-5.9,0-14.5-1.1-19.8-2.9l2.8-10.6c4,1.4,10.9,2.6,16.4,2.6
					c7.4,0,10.9-1,10.8-6.8c0-3.9-2.2-5.7-11.8-6.6c-12.2-1-18.7-4.3-18.7-15.7c0-14.3,9.6-18.4,23.6-18.4c5.8,0,13,1.2,18.6,3
					L2077.4,406.1z"/>
				<path class="moneyTranSt9" d="M1942.6,392.8c-7.6,0-15.5,1.3-21.3,2.8c2.6,1.3,5.3,7.4,4.5,10.8c4.5-1.5,8.2-2.3,13.9-2.3
					c11.5,0,13.8,2.4,13.8,12c-4.7-1-9-1.5-13.7-1.5c-12.9,0-21.7,2.5-21.7,18.2c0,14.4,5.9,18.5,23.4,18.4c7.7,0,18-1.7,25-4.4
					l-0.1-32.6C1966.5,397.8,1959,392.8,1942.6,392.8z M1953.7,439.1c-3.1,1.1-7.2,1.9-11.1,1.9c-8.1,0-10.2-1.2-10.2-8.7
					c0-7.1,2.7-7.9,10.3-7.9c4,0,7.9,0.3,11,1V439.1z"/>
				<path class="moneyTranSt11" d="M1861.4,451.4c-1.3,0-1.6,0-2.7,1.2c-1.2,1.2-2.4,2.5-3.2,3.4c-0.9,1.1-1.5,2,1.7,3.4
					c3.1,1.4,19.6,8.4,20.2,8.6c0.2-1.2,0.6-2.9,0.9-4.9l0.5-3c0.8-4.4,1.5-8.6,1.5-8.6l0,0l0,0
					C1866.7,451.4,1864.1,451.4,1861.4,451.4z"/>
			</g>
		</g>
	</g>
	<g id="bank">
		<g>
			<g>
				<path class="moneyTranSt12" d="M-803.4,1128.6"/>
			</g>
		</g>
		<g>
			<path class="moneyTranSt0" d="M574.1,1033.5c0,17.1-14.2,31-31.6,31H51.1c-17.4,0-31.6-14-31.6-31V46.8c0-17.1,14.2-31,31.6-31h491.4
				c17.4,0,31.6,14,31.6,31V1033.5z"/>
			
				<linearGradient id="SVGID_2_" gradientUnits="userSpaceOnUse" x1="296.8383" y1="876.8735" x2="296.8383" y2="295.9999" gradientTransform="matrix(1 0 0 -1 0 1108)">
				<stop  offset="0" style="stop-color:#004392"/>
				<stop  offset="1" style="stop-color:#27A8DF"/>
			</linearGradient>
			<polygon class="moneyTranSt13" points="523.6,131.6 510.3,131.6 484.9,131.6 456,131.6 431.9,131.6 430.3,131.6 398,131.6 316.8,131.6 
				288.6,131.6 259.7,131.6 232.7,131.6 192.2,131.6 167,131.6 87.6,131.6 84.7,131.6 59.5,131.6 45,131.6 45,243.4 45,243.4 
				45,273.5 45,273.6 45,356.7 45,356.7 45,457.3 45,457.3 45,482.2 45,482.2 45,731.9 45,731.9 45,754.5 45,754.5 45,870 45,870 
				45,900.1 45,900.1 45,975.2 46.8,975.2 72.8,975.2 130.5,975.2 163.3,975.2 163.3,975.2 167,975.2 188.3,975.2 192.2,975.2 
				217.1,975.2 220.8,975.2 242.7,975.2 319.5,975.2 320.8,975.2 348.2,975.2 416.3,975.2 444.3,975.2 450.5,975.2 483.9,975.2 
				548.7,975.2 548.7,906.3 548.7,860.2 548.7,849.3 548.7,835.3 548.7,808.2 548.7,796.4 548.7,765.7 548.7,482.2 548.7,457.3 
				548.7,391.6 548.7,356.7 548.7,207.8 548.7,180.1 548.7,131.6 			"/>
			<path class="moneyTranSt2" d="M346.1,95h-91.7c-2.5,0-4.5-2-4.5-4.5v-8.1c0-2.5,2-4.5,4.5-4.5h91.7c2.5,0,4.5,2,4.5,4.5v8.1
				C350.6,93,348.6,95,346.1,95z"/>
			<circle class="moneyTranSt8" cx="308.1" cy="1017.9" r="32.6"/>
			<g>
				<g>
					<g>
						
							<linearGradient id="SVGID_3_" gradientUnits="userSpaceOnUse" x1="307.9383" y1="562.301" x2="307.9383" y2="534.4152" gradientTransform="matrix(1 0 0 -1 0 1108)">
							<stop  offset="0" style="stop-color:#3A5560"/>
							<stop  offset="0.2942" style="stop-color:#344E59"/>
							<stop  offset="0.7264" style="stop-color:#243C45"/>
							<stop  offset="1" style="stop-color:#172D35"/>
						</linearGradient>
						<polygon class="moneyTranSt14" points="516.4,570.7 99.5,570.7 123.3,558.6 492.5,558.7 						"/>
						
							<linearGradient id="SVGID_4_" gradientUnits="userSpaceOnUse" x1="307.9383" y1="540.5444" x2="307.9383" y2="507.7535" gradientTransform="matrix(1 0 0 -1 0 1108)">
							<stop  offset="0" style="stop-color:#FFFFFF"/>
							<stop  offset="0.3982" style="stop-color:#E2E3E4"/>
							<stop  offset="1" style="stop-color:#AFB1B4"/>
						</linearGradient>
						<rect x="99.5" y="570.7" class="moneyTranSt15" width="416.9" height="16.2"/>
						
							<linearGradient id="SVGID_5_" gradientUnits="userSpaceOnUse" x1="307.5882" y1="737.2743" x2="307.5882" y2="891.3237" gradientTransform="matrix(1 0 0 -1 0 1108)">
							<stop  offset="0" style="stop-color:#FFFFFF"/>
							<stop  offset="0.3982" style="stop-color:#E2E3E4"/>
							<stop  offset="1" style="stop-color:#AFB1B4"/>
						</linearGradient>
						<polygon class="moneyTranSt16" points="458.3,359.9 458.3,284 306.7,219.8 156.9,284 156.9,359.9 						"/>
						<g>
							
								<linearGradient id="SVGID_6_" gradientUnits="userSpaceOnUse" x1="307.5883" y1="915.256" x2="307.5883" y2="785.6917" gradientTransform="matrix(1 0 0 -1 0 1108)">
								<stop  offset="0" style="stop-color:#3A5560"/>
								<stop  offset="0.2942" style="stop-color:#344E59"/>
								<stop  offset="0.7264" style="stop-color:#243C45"/>
								<stop  offset="1" style="stop-color:#172D35"/>
							</linearGradient>
							<polygon class="moneyTranSt17" points="306.6,208.5 149.2,287.1 149.2,298.3 306.7,219.8 466,297.7 466,286.5 							"/>
						</g>
						<g>
							
								<linearGradient id="SVGID_7_" gradientUnits="userSpaceOnUse" x1="307.5382" y1="912.3218" x2="307.5382" y2="820.3409" gradientTransform="matrix(1 0 0 -1 0 1108)">
								<stop  offset="0" style="stop-color:#FFFFFF"/>
								<stop  offset="0.3982" style="stop-color:#E2E3E4"/>
								<stop  offset="1" style="stop-color:#AFB1B4"/>
							</linearGradient>
							<polygon class="moneyTranSt18" points="306.6,203.6 146.3,283.6 146.3,288.9 306.7,208.9 468.8,288.3 468.8,283 							"/>
						</g>
						<polygon class="moneyTranSt19" points="156.9,297.4 156.9,302.8 306.7,228.1 458.3,302.2 458.3,297 306.6,222.8 						"/>
						<g>
							
								<linearGradient id="SVGID_8_" gradientUnits="userSpaceOnUse" x1="307.5382" y1="912.3218" x2="307.5382" y2="820.3409" gradientTransform="matrix(1 0 0 -1 0 1108)">
								<stop  offset="0" style="stop-color:#FFFFFF"/>
								<stop  offset="0.3982" style="stop-color:#E2E3E4"/>
								<stop  offset="1" style="stop-color:#AFB1B4"/>
							</linearGradient>
							<polygon class="moneyTranSt20" points="306.6,219.2 146.3,299.1 146.3,304.4 306.7,224.5 468.8,303.8 468.8,298.5 							"/>
						</g>
						<g>
							
								<linearGradient id="SVGID_9_" gradientUnits="userSpaceOnUse" x1="232.4881" y1="808.8805" x2="232.4881" y2="746.9395" gradientTransform="matrix(1 0 0 -1 0 1108)">
								<stop  offset="0" style="stop-color:#3A5560"/>
								<stop  offset="0.2942" style="stop-color:#344E59"/>
								<stop  offset="0.7264" style="stop-color:#243C45"/>
								<stop  offset="1" style="stop-color:#172D35"/>
							</linearGradient>
							<path class="moneyTranSt21" d="M211.6,304.4h26.2c4.4,0,7.7,1.1,10,3.2c2.3,2.2,3.5,4.8,3.5,8c0,2.7-0.8,5-2.5,6.9
								c-1.1,1.3-2.7,2.3-4.9,3c3.3,0.8,5.6,2.1,7.2,4c1.5,1.9,2.3,4.3,2.3,7.2c0,2.3-0.5,4.5-1.6,6.3c-1.1,1.9-2.6,3.4-4.5,4.4
								c-1.2,0.7-2.9,1.2-5.3,1.5c-3.1,0.4-5.2,0.6-6.3,0.6h-24.1L211.6,304.4L211.6,304.4z M225.7,322.2h6.1c2.2,0,3.7-0.4,4.6-1.1
								c0.9-0.8,1.3-1.8,1.3-3.3c0-1.3-0.4-2.3-1.3-3.1c-0.9-0.7-2.3-1.1-4.5-1.1h-6.2V322.2z M225.7,340h7.1c2.4,0,4.1-0.4,5.1-1.3
								s1.5-2,1.5-3.4c0-1.3-0.5-2.4-1.5-3.2c-1-0.8-2.7-1.2-5.1-1.2h-7.1V340z"/>
							
								<linearGradient id="SVGID_10_" gradientUnits="userSpaceOnUse" x1="279.7385" y1="808.8805" x2="279.7385" y2="746.9395" gradientTransform="matrix(1 0 0 -1 0 1108)">
								<stop  offset="0" style="stop-color:#3A5560"/>
								<stop  offset="0.2942" style="stop-color:#344E59"/>
								<stop  offset="0.7264" style="stop-color:#243C45"/>
								<stop  offset="1" style="stop-color:#172D35"/>
							</linearGradient>
							<path class="moneyTranSt22" d="M287.5,342.2h-15.9l-2.2,7.5h-14.3l17-45.3h15.3l17,45.3h-14.6L287.5,342.2z M284.6,332.4l-5-16.3
								l-4.9,16.3H284.6z"/>
							
								<linearGradient id="SVGID_11_" gradientUnits="userSpaceOnUse" x1="330.5383" y1="808.8805" x2="330.5383" y2="746.9395" gradientTransform="matrix(1 0 0 -1 0 1108)">
								<stop  offset="0" style="stop-color:#3A5560"/>
								<stop  offset="0.2942" style="stop-color:#344E59"/>
								<stop  offset="0.7264" style="stop-color:#243C45"/>
								<stop  offset="1" style="stop-color:#172D35"/>
							</linearGradient>
							<path class="moneyTranSt23" d="M308.9,304.4H322l17,25v-25h13.2v45.3H339l-16.9-24.8v24.8h-13.2V304.4z"/>
							
								<linearGradient id="SVGID_12_" gradientUnits="userSpaceOnUse" x1="385.4885" y1="808.8805" x2="385.4885" y2="746.9395" gradientTransform="matrix(1 0 0 -1 0 1108)">
								<stop  offset="0" style="stop-color:#3A5560"/>
								<stop  offset="0.2942" style="stop-color:#344E59"/>
								<stop  offset="0.7264" style="stop-color:#243C45"/>
								<stop  offset="1" style="stop-color:#172D35"/>
							</linearGradient>
							<path class="moneyTranSt24" d="M361.5,304.4h14v17.1l14.6-17.1h18.6l-16.5,17.1l17.3,28.2h-17.2l-9.5-18.6l-7.2,7.6v11h-14v-45.3
								H361.5z"/>
						</g>
						
							<linearGradient id="SVGID_13_" gradientUnits="userSpaceOnUse" x1="307.8883" y1="707.9401" x2="307.8883" y2="559.2109" gradientTransform="matrix(1 0 0 -1 0 1108)">
							<stop  offset="0" style="stop-color:#3A5560"/>
							<stop  offset="0.2942" style="stop-color:#344E59"/>
							<stop  offset="0.7264" style="stop-color:#243C45"/>
							<stop  offset="1" style="stop-color:#172D35"/>
						</linearGradient>
						<rect x="142.1" y="370.1" class="moneyTranSt25" width="331.6" height="181.3"/>
						<polygon class="moneyTranSt26" points="495.2,373.5 473.8,371.9 473.8,370.2 142.2,370.1 142.2,371.9 120.7,373.5 142.1,384.9 
							142.1,395.5 473.8,395.6 473.8,384.9 						"/>
						<polygon class="moneyTranSt27" points="475.3,384 495.2,373.5 473.8,371.9 473.8,370.2 142.2,370.1 142.2,371.9 120.7,373.5 140.6,384 
													"/>
						
							<linearGradient id="SVGID_14_" gradientUnits="userSpaceOnUse" x1="307.9383" y1="582.8364" x2="307.9383" y2="556.9183" gradientTransform="matrix(1 0 0 -1 0 1108)">
							<stop  offset="0" style="stop-color:#3A5560"/>
							<stop  offset="0.2942" style="stop-color:#344E59"/>
							<stop  offset="0.7264" style="stop-color:#243C45"/>
							<stop  offset="1" style="stop-color:#172D35"/>
						</linearGradient>
						<polygon class="moneyTranSt28" points="495.2,547.8 120.7,547.8 142.1,536.9 473.7,537 						"/>
						<g>
							
								<linearGradient id="SVGID_15_" gradientUnits="userSpaceOnUse" x1="154.1883" y1="647.05" x2="180.3883" y2="647.05" gradientTransform="matrix(1 0 0 -1 0 1108)">
								<stop  offset="0" style="stop-color:#FFFFFF"/>
								<stop  offset="0.3982" style="stop-color:#E2E3E4"/>
								<stop  offset="1" style="stop-color:#AFB1B4"/>
							</linearGradient>
							<rect x="154.2" y="383.6" class="moneyTranSt29" width="26.2" height="154.7"/>
							
								<linearGradient id="SVGID_16_" gradientUnits="userSpaceOnUse" x1="175.1275" y1="647.05" x2="178.384" y2="647.05" gradientTransform="matrix(1 0 0 -1 0 1108)">
								<stop  offset="0" style="stop-color:#FFFFFF"/>
								<stop  offset="0.3982" style="stop-color:#E2E3E4"/>
								<stop  offset="1" style="stop-color:#AFB1B4"/>
							</linearGradient>
							<rect x="175.6" y="383.6" class="moneyTranSt30" width="2.3" height="154.7"/>
							
								<linearGradient id="SVGID_17_" gradientUnits="userSpaceOnUse" x1="170.4719" y1="647.05" x2="173.3828" y2="647.05" gradientTransform="matrix(1 0 0 -1 0 1108)">
								<stop  offset="0" style="stop-color:#FFFFFF"/>
								<stop  offset="0.3982" style="stop-color:#E2E3E4"/>
								<stop  offset="1" style="stop-color:#AFB1B4"/>
							</linearGradient>
							<rect x="170.9" y="383.6" class="moneyTranSt31" width="2.3" height="154.7"/>
							
								<linearGradient id="SVGID_18_" gradientUnits="userSpaceOnUse" x1="165.7709" y1="647.05" x2="169.0753" y2="647.05" gradientTransform="matrix(1 0 0 -1 0 1108)">
								<stop  offset="0" style="stop-color:#FFFFFF"/>
								<stop  offset="0.3982" style="stop-color:#E2E3E4"/>
								<stop  offset="1" style="stop-color:#AFB1B4"/>
							</linearGradient>
							<rect x="166.1" y="383.6" class="moneyTranSt32" width="2.3" height="154.7"/>
							
								<linearGradient id="SVGID_19_" gradientUnits="userSpaceOnUse" x1="161.161" y1="647.05" x2="164.7197" y2="647.05" gradientTransform="matrix(1 0 0 -1 0 1108)">
								<stop  offset="0" style="stop-color:#FFFFFF"/>
								<stop  offset="0.3982" style="stop-color:#E2E3E4"/>
								<stop  offset="1" style="stop-color:#AFB1B4"/>
							</linearGradient>
							<rect x="161.4" y="383.6" class="moneyTranSt33" width="2.3" height="154.7"/>
							
								<linearGradient id="SVGID_20_" gradientUnits="userSpaceOnUse" x1="156.5974" y1="647.05" x2="160.5483" y2="647.05" gradientTransform="matrix(1 0 0 -1 0 1108)">
								<stop  offset="0" style="stop-color:#FFFFFF"/>
								<stop  offset="0.3982" style="stop-color:#E2E3E4"/>
								<stop  offset="1" style="stop-color:#AFB1B4"/>
							</linearGradient>
							<rect x="156.6" y="383.6" class="moneyTranSt34" width="2.3" height="154.7"/>
							
								<linearGradient id="SVGID_21_" gradientUnits="userSpaceOnUse" x1="147.3883" y1="725.1" x2="187.1883" y2="725.1" gradientTransform="matrix(1 0 0 -1 0 1108)">
								<stop  offset="0" style="stop-color:#ECEDED"/>
								<stop  offset="0.3605" style="stop-color:#C3C5C7"/>
								<stop  offset="0.5215" style="stop-color:#AFB1B4"/>
								<stop  offset="0.6521" style="stop-color:#A8AAAD"/>
								<stop  offset="0.844" style="stop-color:#94979A"/>
								<stop  offset="1" style="stop-color:#7F8285"/>
							</linearGradient>
							<rect x="147.4" y="378.1" class="moneyTranSt35" width="39.8" height="9.6"/>
							
								<linearGradient id="SVGID_22_" gradientUnits="userSpaceOnUse" x1="147.3883" y1="569.9001" x2="187.1883" y2="569.9001" gradientTransform="matrix(1 0 0 -1 0 1108)">
								<stop  offset="0" style="stop-color:#ECEDED"/>
								<stop  offset="0.3605" style="stop-color:#C3C5C7"/>
								<stop  offset="0.5215" style="stop-color:#AFB1B4"/>
								<stop  offset="0.6521" style="stop-color:#A8AAAD"/>
								<stop  offset="0.844" style="stop-color:#94979A"/>
								<stop  offset="1" style="stop-color:#7F8285"/>
							</linearGradient>
							<rect x="147.4" y="533.3" class="moneyTranSt36" width="39.8" height="9.6"/>
						</g>
						<polygon class="moneyTranSt37" points="237.8,387.7 237.8,378.1 198,378.1 198,387.7 204.8,387.7 204.8,533.3 198,533.3 198,542.9 
							237.8,542.9 237.8,533.3 231,533.3 231,387.7 						"/>
						<polygon class="moneyTranSt37" points="412.4,387.7 412.4,378.1 372.6,378.1 372.6,387.7 379.4,387.7 379.4,533.3 372.6,533.3 
							372.6,542.9 412.4,542.9 412.4,533.3 405.6,533.3 405.6,387.7 						"/>
						<polygon class="moneyTranSt37" points="452.3,387.7 452.3,378.1 412.6,378.1 412.6,387.7 419.3,387.7 419.3,533.3 412.6,533.3 
							412.6,542.9 452.3,542.9 452.3,533.3 445.5,533.3 445.5,387.7 						"/>
						<polygon class="moneyTranSt37" points="200.4,387.7 200.4,378.1 160.6,378.1 160.6,387.7 167.4,387.7 167.4,533.3 160.6,533.3 
							160.6,542.9 200.4,542.9 200.4,533.3 193.6,533.3 193.6,387.7 						"/>
						<g>
							
								<linearGradient id="SVGID_23_" gradientUnits="userSpaceOnUse" x1="198.2169" y1="647.05" x2="224.4169" y2="647.05" gradientTransform="matrix(1 0 0 -1 0 1108)">
								<stop  offset="0" style="stop-color:#FFFFFF"/>
								<stop  offset="0.3982" style="stop-color:#E2E3E4"/>
								<stop  offset="1" style="stop-color:#AFB1B4"/>
							</linearGradient>
							<rect x="198.2" y="383.6" class="moneyTranSt38" width="26.2" height="154.7"/>
							
								<linearGradient id="SVGID_24_" gradientUnits="userSpaceOnUse" x1="219.1308" y1="647.05" x2="222.3874" y2="647.05" gradientTransform="matrix(1 0 0 -1 0 1108)">
								<stop  offset="0" style="stop-color:#FFFFFF"/>
								<stop  offset="0.3982" style="stop-color:#E2E3E4"/>
								<stop  offset="1" style="stop-color:#AFB1B4"/>
							</linearGradient>
							<rect x="219.6" y="383.6" class="moneyTranSt39" width="2.3" height="154.7"/>
							
								<linearGradient id="SVGID_25_" gradientUnits="userSpaceOnUse" x1="214.4752" y1="647.05" x2="217.3862" y2="647.05" gradientTransform="matrix(1 0 0 -1 0 1108)">
								<stop  offset="0" style="stop-color:#FFFFFF"/>
								<stop  offset="0.3982" style="stop-color:#E2E3E4"/>
								<stop  offset="1" style="stop-color:#AFB1B4"/>
							</linearGradient>
							<rect x="214.9" y="383.6" class="moneyTranSt40" width="2.3" height="154.7"/>
							
								<linearGradient id="SVGID_26_" gradientUnits="userSpaceOnUse" x1="209.7742" y1="647.05" x2="213.0786" y2="647.05" gradientTransform="matrix(1 0 0 -1 0 1108)">
								<stop  offset="0" style="stop-color:#FFFFFF"/>
								<stop  offset="0.3982" style="stop-color:#E2E3E4"/>
								<stop  offset="1" style="stop-color:#AFB1B4"/>
							</linearGradient>
							<rect x="210.1" y="383.6" class="moneyTranSt41" width="2.3" height="154.7"/>
							
								<linearGradient id="SVGID_27_" gradientUnits="userSpaceOnUse" x1="205.1643" y1="647.05" x2="208.723" y2="647.05" gradientTransform="matrix(1 0 0 -1 0 1108)">
								<stop  offset="0" style="stop-color:#FFFFFF"/>
								<stop  offset="0.3982" style="stop-color:#E2E3E4"/>
								<stop  offset="1" style="stop-color:#AFB1B4"/>
							</linearGradient>
							<rect x="205.4" y="383.6" class="moneyTranSt42" width="2.3" height="154.7"/>
							
								<linearGradient id="SVGID_28_" gradientUnits="userSpaceOnUse" x1="200.6008" y1="647.05" x2="204.5516" y2="647.05" gradientTransform="matrix(1 0 0 -1 0 1108)">
								<stop  offset="0" style="stop-color:#FFFFFF"/>
								<stop  offset="0.3982" style="stop-color:#E2E3E4"/>
								<stop  offset="1" style="stop-color:#AFB1B4"/>
							</linearGradient>
							<rect x="200.6" y="383.6" class="moneyTranSt43" width="2.3" height="154.7"/>
							
								<linearGradient id="SVGID_29_" gradientUnits="userSpaceOnUse" x1="191.4303" y1="725.1" x2="231.2303" y2="725.1" gradientTransform="matrix(1 0 0 -1 0 1108)">
								<stop  offset="0" style="stop-color:#ECEDED"/>
								<stop  offset="0.3605" style="stop-color:#C3C5C7"/>
								<stop  offset="0.5215" style="stop-color:#AFB1B4"/>
								<stop  offset="0.6521" style="stop-color:#A8AAAD"/>
								<stop  offset="0.844" style="stop-color:#94979A"/>
								<stop  offset="1" style="stop-color:#7F8285"/>
							</linearGradient>
							<rect x="191.4" y="378.1" class="moneyTranSt44" width="39.8" height="9.6"/>
							
								<linearGradient id="SVGID_30_" gradientUnits="userSpaceOnUse" x1="191.4303" y1="569.9001" x2="231.2303" y2="569.9001" gradientTransform="matrix(1 0 0 -1 0 1108)">
								<stop  offset="0" style="stop-color:#ECEDED"/>
								<stop  offset="0.3605" style="stop-color:#C3C5C7"/>
								<stop  offset="0.5215" style="stop-color:#AFB1B4"/>
								<stop  offset="0.6521" style="stop-color:#A8AAAD"/>
								<stop  offset="0.844" style="stop-color:#94979A"/>
								<stop  offset="1" style="stop-color:#7F8285"/>
							</linearGradient>
							<rect x="191.4" y="533.3" class="moneyTranSt45" width="39.8" height="9.6"/>
						</g>
						<g>
							
								<linearGradient id="SVGID_31_" gradientUnits="userSpaceOnUse" x1="386.4518" y1="647.05" x2="412.6517" y2="647.05" gradientTransform="matrix(1 0 0 -1 0 1108)">
								<stop  offset="0" style="stop-color:#FFFFFF"/>
								<stop  offset="0.3982" style="stop-color:#E2E3E4"/>
								<stop  offset="1" style="stop-color:#AFB1B4"/>
							</linearGradient>
							<rect x="386.5" y="383.6" class="moneyTranSt46" width="26.2" height="154.7"/>
							
								<linearGradient id="SVGID_32_" gradientUnits="userSpaceOnUse" x1="407.3651" y1="647.05" x2="410.6222" y2="647.05" gradientTransform="matrix(1 0 0 -1 0 1108)">
								<stop  offset="0" style="stop-color:#FFFFFF"/>
								<stop  offset="0.3982" style="stop-color:#E2E3E4"/>
								<stop  offset="1" style="stop-color:#AFB1B4"/>
							</linearGradient>
							<rect x="407.8" y="383.6" class="moneyTranSt47" width="2.3" height="154.7"/>
							
								<linearGradient id="SVGID_33_" gradientUnits="userSpaceOnUse" x1="402.7093" y1="647.05" x2="405.6209" y2="647.05" gradientTransform="matrix(1 0 0 -1 0 1108)">
								<stop  offset="0" style="stop-color:#FFFFFF"/>
								<stop  offset="0.3982" style="stop-color:#E2E3E4"/>
								<stop  offset="1" style="stop-color:#AFB1B4"/>
							</linearGradient>
							<rect x="403.1" y="383.6" class="moneyTranSt48" width="2.3" height="154.7"/>
							
								<linearGradient id="SVGID_34_" gradientUnits="userSpaceOnUse" x1="398.0081" y1="647.05" x2="401.3131" y2="647.05" gradientTransform="matrix(1 0 0 -1 0 1108)">
								<stop  offset="0" style="stop-color:#FFFFFF"/>
								<stop  offset="0.3982" style="stop-color:#E2E3E4"/>
								<stop  offset="1" style="stop-color:#AFB1B4"/>
							</linearGradient>
							<rect x="398.3" y="383.6" class="moneyTranSt49" width="2.3" height="154.7"/>
							
								<linearGradient id="SVGID_35_" gradientUnits="userSpaceOnUse" x1="393.3988" y1="647.05" x2="396.9574" y2="647.05" gradientTransform="matrix(1 0 0 -1 0 1108)">
								<stop  offset="0" style="stop-color:#FFFFFF"/>
								<stop  offset="0.3982" style="stop-color:#E2E3E4"/>
								<stop  offset="1" style="stop-color:#AFB1B4"/>
							</linearGradient>
							<rect x="393.6" y="383.6" class="moneyTranSt50" width="2.3" height="154.7"/>
							
								<linearGradient id="SVGID_36_" gradientUnits="userSpaceOnUse" x1="388.8353" y1="647.05" x2="392.7855" y2="647.05" gradientTransform="matrix(1 0 0 -1 0 1108)">
								<stop  offset="0" style="stop-color:#FFFFFF"/>
								<stop  offset="0.3982" style="stop-color:#E2E3E4"/>
								<stop  offset="1" style="stop-color:#AFB1B4"/>
							</linearGradient>
							<rect x="388.8" y="383.6" class="moneyTranSt51" width="2.3" height="154.7"/>
							
								<linearGradient id="SVGID_37_" gradientUnits="userSpaceOnUse" x1="379.6883" y1="725.1" x2="419.4884" y2="725.1" gradientTransform="matrix(1 0 0 -1 0 1108)">
								<stop  offset="0" style="stop-color:#ECEDED"/>
								<stop  offset="0.3605" style="stop-color:#C3C5C7"/>
								<stop  offset="0.5215" style="stop-color:#AFB1B4"/>
								<stop  offset="0.6521" style="stop-color:#A8AAAD"/>
								<stop  offset="0.844" style="stop-color:#94979A"/>
								<stop  offset="1" style="stop-color:#7F8285"/>
							</linearGradient>
							<rect x="379.7" y="378.1" class="moneyTranSt52" width="39.8" height="9.6"/>
							
								<linearGradient id="SVGID_38_" gradientUnits="userSpaceOnUse" x1="379.6883" y1="569.9001" x2="419.4884" y2="569.9001" gradientTransform="matrix(1 0 0 -1 0 1108)">
								<stop  offset="0" style="stop-color:#ECEDED"/>
								<stop  offset="0.3605" style="stop-color:#C3C5C7"/>
								<stop  offset="0.5215" style="stop-color:#AFB1B4"/>
								<stop  offset="0.6521" style="stop-color:#A8AAAD"/>
								<stop  offset="0.844" style="stop-color:#94979A"/>
								<stop  offset="1" style="stop-color:#7F8285"/>
							</linearGradient>
							<rect x="379.7" y="533.3" class="moneyTranSt53" width="39.8" height="9.6"/>
						</g>
						<g>
							
								<linearGradient id="SVGID_39_" gradientUnits="userSpaceOnUse" x1="430.4547" y1="647.05" x2="456.6546" y2="647.05" gradientTransform="matrix(1 0 0 -1 0 1108)">
								<stop  offset="0" style="stop-color:#FFFFFF"/>
								<stop  offset="0.3982" style="stop-color:#E2E3E4"/>
								<stop  offset="1" style="stop-color:#AFB1B4"/>
							</linearGradient>
							<rect x="430.5" y="383.6" class="moneyTranSt54" width="26.2" height="154.7"/>
							
								<linearGradient id="SVGID_40_" gradientUnits="userSpaceOnUse" x1="451.369" y1="647.05" x2="454.6251" y2="647.05" gradientTransform="matrix(1 0 0 -1 0 1108)">
								<stop  offset="0" style="stop-color:#FFFFFF"/>
								<stop  offset="0.3982" style="stop-color:#E2E3E4"/>
								<stop  offset="1" style="stop-color:#AFB1B4"/>
							</linearGradient>
							<rect x="451.8" y="383.6" class="moneyTranSt55" width="2.3" height="154.7"/>
							
								<linearGradient id="SVGID_41_" gradientUnits="userSpaceOnUse" x1="446.713" y1="647.05" x2="449.6239" y2="647.05" gradientTransform="matrix(1 0 0 -1 0 1108)">
								<stop  offset="0" style="stop-color:#FFFFFF"/>
								<stop  offset="0.3982" style="stop-color:#E2E3E4"/>
								<stop  offset="1" style="stop-color:#AFB1B4"/>
							</linearGradient>
							<rect x="447.1" y="383.6" class="moneyTranSt56" width="2.3" height="154.7"/>
							
								<linearGradient id="SVGID_42_" gradientUnits="userSpaceOnUse" x1="442.0118" y1="647.05" x2="445.3167" y2="647.05" gradientTransform="matrix(1 0 0 -1 0 1108)">
								<stop  offset="0" style="stop-color:#FFFFFF"/>
								<stop  offset="0.3982" style="stop-color:#E2E3E4"/>
								<stop  offset="1" style="stop-color:#AFB1B4"/>
							</linearGradient>
							<rect x="442.3" y="383.6" class="moneyTranSt57" width="2.3" height="154.7"/>
							
								<linearGradient id="SVGID_43_" gradientUnits="userSpaceOnUse" x1="437.4017" y1="647.05" x2="440.9615" y2="647.05" gradientTransform="matrix(1 0 0 -1 0 1108)">
								<stop  offset="0" style="stop-color:#FFFFFF"/>
								<stop  offset="0.3982" style="stop-color:#E2E3E4"/>
								<stop  offset="1" style="stop-color:#AFB1B4"/>
							</linearGradient>
							<rect x="437.6" y="383.6" class="moneyTranSt58" width="2.3" height="154.7"/>
							
								<linearGradient id="SVGID_44_" gradientUnits="userSpaceOnUse" x1="432.8382" y1="647.05" x2="436.7896" y2="647.05" gradientTransform="matrix(1 0 0 -1 0 1108)">
								<stop  offset="0" style="stop-color:#FFFFFF"/>
								<stop  offset="0.3982" style="stop-color:#E2E3E4"/>
								<stop  offset="1" style="stop-color:#AFB1B4"/>
							</linearGradient>
							<rect x="432.8" y="383.6" class="moneyTranSt59" width="2.3" height="154.7"/>
							
								<linearGradient id="SVGID_45_" gradientUnits="userSpaceOnUse" x1="423.6883" y1="725.1" x2="463.4884" y2="725.1" gradientTransform="matrix(1 0 0 -1 0 1108)">
								<stop  offset="0" style="stop-color:#ECEDED"/>
								<stop  offset="0.3605" style="stop-color:#C3C5C7"/>
								<stop  offset="0.5215" style="stop-color:#AFB1B4"/>
								<stop  offset="0.6521" style="stop-color:#A8AAAD"/>
								<stop  offset="0.844" style="stop-color:#94979A"/>
								<stop  offset="1" style="stop-color:#7F8285"/>
							</linearGradient>
							<rect x="423.7" y="378.1" class="moneyTranSt60" width="39.8" height="9.6"/>
							
								<linearGradient id="SVGID_46_" gradientUnits="userSpaceOnUse" x1="423.6883" y1="569.9001" x2="463.4884" y2="569.9001" gradientTransform="matrix(1 0 0 -1 0 1108)">
								<stop  offset="0" style="stop-color:#ECEDED"/>
								<stop  offset="0.3605" style="stop-color:#C3C5C7"/>
								<stop  offset="0.5215" style="stop-color:#AFB1B4"/>
								<stop  offset="0.6521" style="stop-color:#A8AAAD"/>
								<stop  offset="0.844" style="stop-color:#94979A"/>
								<stop  offset="1" style="stop-color:#7F8285"/>
							</linearGradient>
							<rect x="423.7" y="533.3" class="moneyTranSt61" width="39.8" height="9.6"/>
						</g>
						
							<linearGradient id="SVGID_47_" gradientUnits="userSpaceOnUse" x1="307.9884" y1="766.6096" x2="307.9884" y2="723.58" gradientTransform="matrix(1 0 0 -1 0 1108)">
							<stop  offset="0" style="stop-color:#FFFFFF"/>
							<stop  offset="0.3982" style="stop-color:#E2E3E4"/>
							<stop  offset="1" style="stop-color:#AFB1B4"/>
						</linearGradient>
						<rect x="120.7" y="349.2" class="moneyTranSt62" width="374.6" height="24.3"/>
						
							<linearGradient id="SVGID_48_" gradientUnits="userSpaceOnUse" x1="307.9884" y1="566.457" x2="307.9884" y2="532.7073" gradientTransform="matrix(1 0 0 -1 0 1108)">
							<stop  offset="0" style="stop-color:#FFFFFF"/>
							<stop  offset="0.3982" style="stop-color:#E2E3E4"/>
							<stop  offset="1" style="stop-color:#AFB1B4"/>
						</linearGradient>
						<rect x="120.7" y="547.8" class="moneyTranSt63" width="374.6" height="14.5"/>
						
							<linearGradient id="SVGID_49_" gradientUnits="userSpaceOnUse" x1="307.9884" y1="764.0428" x2="307.9884" y2="727.9279" gradientTransform="matrix(1 0 0 -1 0 1108)">
							<stop  offset="0" style="stop-color:#ECEDED"/>
							<stop  offset="0.3605" style="stop-color:#C3C5C7"/>
							<stop  offset="0.5215" style="stop-color:#AFB1B4"/>
							<stop  offset="0.6521" style="stop-color:#A8AAAD"/>
							<stop  offset="0.844" style="stop-color:#94979A"/>
							<stop  offset="1" style="stop-color:#7F8285"/>
						</linearGradient>
						<rect x="120.7" y="353.7" class="moneyTranSt64" width="374.6" height="15.4"/>
						
							<linearGradient id="SVGID_50_" gradientUnits="userSpaceOnUse" x1="307.9884" y1="763.3094" x2="307.9884" y2="724.0306" gradientTransform="matrix(1 0 0 -1 0 1108)">
							<stop  offset="0" style="stop-color:#3A5560"/>
							<stop  offset="0.2942" style="stop-color:#344E59"/>
							<stop  offset="0.7264" style="stop-color:#243C45"/>
							<stop  offset="1" style="stop-color:#172D35"/>
						</linearGradient>
						<rect x="120.7" y="356.7" class="st65" width="374.6" height="9.4"/>
						<g class="moneyTranSt66">
							<g>
								<path class="moneyTranSt67" d="M325.4,444.8l-13.1,2.3c-0.7-1.9-1.3-3.2-1.8-3.9c-0.5-0.7-1.4-1.5-2.6-2.2v11.5
									c7.1,2.1,11.9,4.4,14.3,6.8c3.2,3.2,4.8,7.2,4.8,12.2c0,2.9-0.6,5.5-1.7,7.9c-1.1,2.4-2.6,4.4-4.4,6
									c-1.8,1.6-3.7,2.8-5.7,3.5s-4.4,1.2-7.3,1.3v7.5h-5.2v-7.5c-3.5-0.3-6.3-1-8.4-1.9c-2.2-0.9-4-2.2-5.6-3.8
									c-1.6-1.6-2.8-3.3-3.6-5.2c-0.8-1.9-1.5-4.1-1.9-6.7l14.3-1.9c0.4,2.6,1,4.5,1.7,5.7s1.9,2.2,3.5,3.1v-14
									c-4.8-1.5-8.1-2.8-10.1-3.8c-2-1.1-3.7-2.8-5.2-5.2c-1.5-2.4-2.2-5.3-2.2-8.7c0-4.7,1.5-8.6,4.4-11.8
									c2.9-3.2,7.3-4.9,13.1-5.2v-3.9h5.2v3.9c5.3,0.4,9.3,1.8,12.1,4.2C322.8,437.2,324.6,440.6,325.4,444.8z M302.7,440.8
									c-1.5,0.6-2.6,1.2-3.1,2.1c-0.6,0.8-0.9,1.8-0.9,2.9c0,1.2,0.3,2.2,0.9,3c0.6,0.9,1.6,1.6,3.1,2.2V440.8z M307.9,479.8
									c2-0.5,3.5-1.3,4.4-2.5s1.4-2.4,1.4-3.9c0-1.2-0.4-2.4-1.2-3.4s-2.3-2-4.6-2.9L307.9,479.8L307.9,479.8z"/>
							</g>
							<g>
								<path class="moneyTranSt67" d="M274.9,448.6l-10.2,1.8c-0.5-1.5-1-2.5-1.4-3c-0.4-0.6-1.1-1.1-2.1-1.7v8.9c5.6,1.7,9.3,3.4,11.2,5.3
									c2.5,2.5,3.7,5.7,3.7,9.5c0,2.2-0.4,4.3-1.3,6.2c-0.9,1.9-2,3.4-3.4,4.7c-1.4,1.3-2.9,2.2-4.4,2.7c-1.6,0.6-3.5,0.9-5.7,1
									v5.8h-4V484c-2.7-0.3-4.9-0.8-6.6-1.5s-3.1-1.7-4.4-3c-1.2-1.3-2.2-2.6-2.8-4.1c-0.7-1.5-1.2-3.2-1.5-5.3l11.1-1.5
									c0.3,2,0.8,3.5,1.3,4.4c0.6,0.9,1.5,1.7,2.8,2.4v-10.9c-3.7-1.2-6.3-2.2-7.9-3s-2.9-2.2-4-4.1s-1.7-4.1-1.7-6.8
									c0-3.7,1.1-6.7,3.4-9.2s5.7-3.8,10.2-4.1v-3.1h4v3.1c4.1,0.3,7.3,1.4,9.4,3.3C272.8,442.7,274.2,445.3,274.9,448.6z
									 M257.2,445.5c-1.2,0.4-2,1-2.5,1.6s-0.7,1.4-0.7,2.3s0.2,1.7,0.7,2.4c0.5,0.7,1.3,1.2,2.4,1.7L257.2,445.5L257.2,445.5z
									 M261.2,475.9c1.6-0.4,2.7-1,3.4-1.9c0.7-0.9,1.1-1.9,1.1-3c0-1-0.3-1.9-0.9-2.7c-0.6-0.8-1.8-1.6-3.6-2.3V475.9z"/>
							</g>
							<g>
								<path class="moneyTranSt67" d="M369,448.6l-10.2,1.8c-0.5-1.5-1-2.5-1.4-3c-0.4-0.6-1.1-1.1-2.1-1.7v8.9c5.6,1.7,9.3,3.4,11.2,5.3
									c2.5,2.5,3.7,5.7,3.7,9.5c0,2.2-0.4,4.3-1.3,6.2c-0.9,1.9-2,3.4-3.4,4.7c-1.4,1.3-2.9,2.2-4.4,2.7c-1.6,0.6-3.5,0.9-5.7,1
									v5.8h-4V484c-2.7-0.3-4.9-0.8-6.6-1.5c-1.7-0.7-3.1-1.7-4.4-3c-1.2-1.3-2.2-2.6-2.8-4.1c-0.7-1.5-1.2-3.2-1.5-5.3l11.1-1.5
									c0.3,2,0.8,3.5,1.3,4.4c0.6,0.9,1.5,1.7,2.8,2.4v-10.9c-3.7-1.2-6.3-2.2-7.9-3c-1.6-0.8-2.9-2.2-4-4.1s-1.7-4.1-1.7-6.8
									c0-3.7,1.1-6.7,3.4-9.2c2.3-2.5,5.7-3.8,10.2-4.1v-3.1h4v3.1c4.1,0.3,7.3,1.4,9.4,3.3C367,442.7,368.4,445.3,369,448.6z
									 M351.3,445.5c-1.2,0.4-2,1-2.5,1.6s-0.7,1.4-0.7,2.3s0.2,1.7,0.7,2.4c0.5,0.7,1.3,1.2,2.4,1.7v-8H351.3z M355.4,475.9
									c1.6-0.4,2.7-1,3.4-1.9s1.1-1.9,1.1-3c0-1-0.3-1.9-0.9-2.7c-0.6-0.8-1.8-1.6-3.6-2.3V475.9z"/>
							</g>
						</g>
						<g>
							<g>
								
									<linearGradient id="SVGID_51_" gradientUnits="userSpaceOnUse" x1="305.0385" y1="690.3378" x2="305.0385" y2="596.3613" gradientTransform="matrix(1 0 0 -1 0 1108)">
									<stop  offset="0" style="stop-color:#F2D76B"/>
									<stop  offset="0.5269" style="stop-color:#EFAF1E"/>
									<stop  offset="0.6431" style="stop-color:#EEA81F"/>
									<stop  offset="0.8143" style="stop-color:#EB9421"/>
									<stop  offset="1" style="stop-color:#E77725"/>
								</linearGradient>
								<path class="moneyTranSt68" d="M327.8,441.4l-14.7,2.3c-0.7-1.9-1.4-3.2-2-3.9c-0.6-0.7-1.6-1.5-2.9-2.2v11.5
									c8,2.1,13.4,4.4,16.1,6.8c3.6,3.2,5.3,7.2,5.3,12.2c0,2.9-0.6,5.5-1.9,7.9c-1.3,2.4-2.9,4.4-4.9,6s-4.1,2.8-6.4,3.5
									c-2.2,0.7-5,1.2-8.2,1.3v7.5h-5.8v-7.5c-3.9-0.3-7-1-9.4-1.9s-4.5-2.2-6.3-3.8c-1.8-1.6-3.1-3.3-4.1-5.2
									c-0.9-1.9-1.7-4.1-2.1-6.7l16-1.9c0.5,2.6,1.1,4.5,1.9,5.7c0.8,1.2,2.1,2.2,4,3.1v-14c-5.3-1.5-9.1-2.8-11.3-3.8
									c-2.2-1.1-4.2-2.8-5.8-5.2c-1.6-2.4-2.5-5.3-2.5-8.7c0-4.7,1.6-8.6,4.9-11.8c3.3-3.2,8.2-4.9,14.7-5.2v-3.9h5.8v3.9
									c5.9,0.4,10.4,1.8,13.6,4.2C324.8,433.8,326.8,437.1,327.8,441.4z M302.3,437.4c-1.7,0.6-2.9,1.2-3.5,2.1
									c-0.7,0.8-1,1.8-1,2.9c0,1.2,0.3,2.2,1,3c0.7,0.9,1.8,1.6,3.5,2.2V437.4z M308.1,476.4c2.2-0.5,3.9-1.3,4.9-2.5
									s1.6-2.4,1.6-3.9c0-1.2-0.4-2.4-1.3-3.4c-0.9-1-2.6-2-5.2-2.9V476.4z"/>
							</g>
							<g>
								
									<linearGradient id="SVGID_52_" gradientUnits="userSpaceOnUse" x1="253.1883" y1="690.3379" x2="253.1883" y2="596.3616" gradientTransform="matrix(1 0 0 -1 0 1108)">
									<stop  offset="0" style="stop-color:#F2D76B"/>
									<stop  offset="0.5269" style="stop-color:#EFAF1E"/>
									<stop  offset="0.6431" style="stop-color:#EEA81F"/>
									<stop  offset="0.8143" style="stop-color:#EB9421"/>
									<stop  offset="1" style="stop-color:#E77725"/>
								</linearGradient>
								<path class="moneyTranSt69" d="M271.1,445.2l-11.5,1.8c-0.6-1.5-1.1-2.5-1.6-3c-0.5-0.6-1.2-1.1-2.3-1.7v8.9
									c6.3,1.7,10.4,3.4,12.5,5.3c2.8,2.5,4.2,5.7,4.2,9.5c0,2.2-0.5,4.3-1.5,6.2c-1,1.9-2.3,3.4-3.8,4.7c-1.6,1.3-3.2,2.2-5,2.7
									c-1.8,0.6-3.9,0.9-6.4,1v5.8h-4.5v-5.8c-3-0.3-5.5-0.8-7.4-1.5s-3.5-1.7-4.9-3s-2.4-2.6-3.2-4.1c-0.7-1.5-1.3-3.2-1.7-5.3
									l12.5-1.5c0.4,2,0.9,3.5,1.5,4.4s1.7,1.7,3.1,2.4v-10.9c-4.2-1.2-7.1-2.2-8.9-3c-1.7-0.8-3.2-2.2-4.5-4.1s-1.9-4.1-1.9-6.8
									c0-3.7,1.3-6.7,3.8-9.2c2.6-2.5,6.4-3.8,11.4-4.1v-3.1h4.5v3.1c4.6,0.3,8.1,1.4,10.6,3.3
									C268.7,439.3,270.3,441.9,271.1,445.2z M251.2,442.1c-1.3,0.4-2.2,1-2.7,1.6s-0.8,1.4-0.8,2.3s0.3,1.7,0.8,2.4
									c0.5,0.7,1.4,1.2,2.7,1.7V442.1z M255.7,472.5c1.8-0.4,3-1,3.8-1.9s1.2-1.9,1.2-3c0-1-0.3-1.9-1-2.7c-0.7-0.8-2-1.6-4-2.3
									V472.5z"/>
							</g>
							<g>
								
									<linearGradient id="SVGID_53_" gradientUnits="userSpaceOnUse" x1="358.7883" y1="690.3379" x2="358.7883" y2="596.3616" gradientTransform="matrix(1 0 0 -1 0 1108)">
									<stop  offset="0" style="stop-color:#F2D76B"/>
									<stop  offset="0.5269" style="stop-color:#EFAF1E"/>
									<stop  offset="0.6431" style="stop-color:#EEA81F"/>
									<stop  offset="0.8143" style="stop-color:#EB9421"/>
									<stop  offset="1" style="stop-color:#E77725"/>
								</linearGradient>
								<path class="moneyTranSt70" d="M376.7,445.2l-11.5,1.8c-0.6-1.5-1.1-2.5-1.6-3c-0.5-0.6-1.2-1.1-2.3-1.7v8.9
									c6.3,1.7,10.4,3.4,12.5,5.3c2.8,2.5,4.2,5.7,4.2,9.5c0,2.2-0.5,4.3-1.5,6.2c-1,1.9-2.3,3.4-3.8,4.7c-1.6,1.3-3.2,2.2-5,2.7
									c-1.8,0.6-3.9,0.9-6.4,1v5.8h-4.5v-5.8c-3-0.3-5.5-0.8-7.4-1.5s-3.5-1.7-4.9-3s-2.4-2.6-3.2-4.1c-0.7-1.5-1.3-3.2-1.7-5.3
									l12.5-1.5c0.4,2,0.9,3.5,1.5,4.4s1.7,1.7,3.1,2.4v-10.9c-4.2-1.2-7.1-2.2-8.9-3c-1.7-0.8-3.3-2.2-4.5-4.1
									c-1.3-1.9-1.9-4.1-1.9-6.8c0-3.7,1.3-6.7,3.8-9.2c2.6-2.5,6.4-3.8,11.4-4.1v-3.1h4.5v3.1c4.6,0.3,8.1,1.4,10.6,3.3
									C374.4,439.3,376,441.9,376.7,445.2z M356.9,442.1c-1.3,0.4-2.2,1-2.8,1.6c-0.5,0.6-0.8,1.4-0.8,2.3s0.3,1.7,0.8,2.4
									c0.5,0.7,1.4,1.2,2.7,1.7v-8H356.9z M361.4,472.5c1.8-0.4,3-1,3.8-1.9s1.2-1.9,1.2-3c0-1-0.3-1.9-1-2.7
									c-0.7-0.8-2-1.6-4-2.3V472.5z"/>
							</g>
						</g>
					</g>
				</g>
			</g>
		</g>
	</g>
	<g>
		<circle class="moneyTranSt71" cx="1108.6" cy="672.6" r="48.3"/>
		
			<linearGradient id="SVGID_54_" gradientUnits="userSpaceOnUse" x1="1108.6174" y1="495.4579" x2="1108.6174" y2="358.2242" gradientTransform="matrix(1 0 0 -1 0 1108)">
			<stop  offset="0" style="stop-color:#F2D76B"/>
			<stop  offset="0.5269" style="stop-color:#EFAF1E"/>
			<stop  offset="0.6431" style="stop-color:#EEA81F"/>
			<stop  offset="0.8143" style="stop-color:#EB9421"/>
			<stop  offset="1" style="stop-color:#E77725"/>
		</linearGradient>
		<circle class="moneyTranSt72" cx="1108.6" cy="672.6" r="40.4"/>
		<path class="moneyTranSt9" d="M1127.5,649.7h-35.8v7.7h6.9c5.3,0,8.8,1.4,10.2,4.2h-17.2v6.6h17.7c-1.1,4.1-5.4,6.4-12.1,6.4h-5.6v6.7
			l0.4,0.4c7.3,7.8,13,14.6,19.2,22.1l0.4,0.5h10.9l-1.7-2.1c-5.8-7.1-11.9-14.5-17.6-20.6c8.7-1.1,14.3-5.9,15.6-13.3h8.7v-6.6
			h-8.8c-0.4-2-1.2-3.9-2.4-5.4h11.2V649.7z"/>
		<path class="moneyTranSt71" d="M1126.5,648.7h-35.8v7.7h6.9c5.3,0,8.8,1.4,10.2,4.2h-17.2v6.6h17.7c-1.1,4.1-5.4,6.4-12.1,6.4h-5.6v6.7
			l0.4,0.4c7.3,7.8,13,14.6,19.2,22.1l0.4,0.5h10.9l-1.7-2.1c-5.8-7.1-11.9-14.5-17.6-20.6c8.7-1.1,14.3-5.9,15.6-13.3h8.7v-6.6
			h-8.8c-0.4-2-1.2-3.9-2.4-5.4h11.2V648.7z"/>
	</g>
	<g id="left_x5F_hand">
		<g>
			<path class="moneyTranSt73" d="M1151.8,525.6l3,98.1c0,0,53.5-2.9,52.3,12.7c-4.1,56.3,20.2,52.9,29,50.5s2.9-70.5,2.9-70.5h6l2.6,39.4
				c5.3,16.7,25.5,10.6,30.8,5.3c5.3-5.3,6.2-9.7,6.2-9.7V610L1151.8,525.6z"/>
			<path class="moneyTranSt74" d="M1049.3,603.2c6.1,12.9,13.6,25.9,20.2,36.6c0.5,0.8,1.5,0.9,2.2,0.4l0,0c0.1,0,0.1-0.1,0.2-0.2
				c1.3-1.5,2.7-2.8,4.2-3.9c0-0.1,0.1-0.1,0.1-0.1c4.9-4.6,11.4-7.3,17.8-9.6c2-0.8,4.1-1.3,6.3-1.7c0.9-0.4,1.8-0.6,2.8-0.6h0.6
				c0.5-0.1,1-0.2,1.6-0.2h0.4c0.1,0,0.3,0,0.4,0c0.2,0,0.3,0,0.5,0c0.4,0,0.7,0.1,1,0.1c0.6-0.2,1.2-0.3,1.9-0.3h0.2
				c0.1,0,0.2,0,0.3,0l-14.7-27.4c0-0.1-0.1-0.2-0.1-0.3c-0.5-1.8-4.7-17.8,4.4-23.6c9.5-6,44.8-28.7,46.6-29.9l0.1-0.1
				c0.7-0.7,8.4-6.7,18.4,0c9.1,6.1,23.4,19.9,27.2,23.7c0.6,0.5,0.6,1.4,0.1,2c-8,9.4-67.4,79.6-62.5,99.3
				c5.3,21.1,13.2,30.8,45.8,0c28.9-27.4,40.5-41.6,42.7-44.4c0.3-0.4,0.7-0.6,1.1-0.6l87.1-4.1c4-0.2,7.9-2,10.6-5l55.1-60
				c0.3-0.3,0.7-0.5,1.1-0.5h16.5c1.1,0,1.8-1.1,1.4-2.1L1349,445.5c-0.2-0.6-0.8-0.9-1.5-0.9l-179.2,12.2c0,0-0.1,0-0.2,0
				c-1.6-0.1-15.1,0.3-17.3,1.8c-3,2.1-85.4,80.3-88.1,82.7c0,0-0.1,0-0.1,0.1C1061.2,543.1,1035.7,573.9,1049.3,603.2z"/>
			<path class="moneyTranSt75" d="M1891.8,910.2v-49.3c0-6.6,5.4-12,12-12h249.3c6.6,0,12,5.4,12,12v49.3c0,6.6-5.4,12-12,12h-249.2
				C1897.3,922.2,1891.9,916.8,1891.8,910.2z"/>
			<path class="moneyTranSt76" d="M1920.2,895.1v-19.7c0-3.3,2.7-6,6-6h203.2c3.3,0,6,2.7,6,6v19.7c0,3.3-2.7,6-6,6h-203.1
				C1923,901.1,1920.3,898.4,1920.2,895.1z"/>
			<path class="moneyTranSt77" d="M1383.8,565.1l-56.3-140.8c133.8-79.2,357.3-47.5,357.3-47.5c396.1,52.8,420.7,515.7,420.7,515.7h-144.3
				C1913.7,368,1383.8,565.1,1383.8,565.1z"/>
			<path class="moneyTranSt78" d="M1369.6,529.4l14.3,35.7c0,0,521.7-194.6,580.8,327.4h26.4C1970,325.7,1369.6,529.4,1369.6,529.4
				L1369.6,529.4z"/>
			<circle class="moneyTranSt77" cx="1470.8" cy="520.5" r="11.9"/>
			<circle class="moneyTranSt77" cx="1430.7" cy="529.9" r="11.9"/>
			<path class="moneyTranSt79" d="M1132.7,672.7c-3.5-6.5,10.9-23,12.4-18s18.5,13.9,18.5,13.9C1152.6,691,1136.1,679.2,1132.7,672.7z"/>
		</g>
	</g>
	<g id="right_x5F_hand">
		<g>
			<path class="moneyTranSt80" d="M1238,769.6c10.8,19.2-55.9,65.9-55.9,65.9l68.5-15.3c0,0,25.2,18.1,9.4,38.3c-7.1,9-80.2,73-89.8,73
				s-206.8-1.8-219.1,0s-76.7,12.4-76.7,12.4l129.5-90.7l161.9-37.8l25.5-34.3C1207.6,759.2,1231.4,758,1238,769.6z"/>
			<path class="moneyTranSt81" d="M150.4,754v-49.3c0-6.6,5.4-12,12-12h249.3c6.6,0,12,5.4,12,12V754c0,6.6-5.4,12-12,12H162.4
				C155.8,766,150.4,760.6,150.4,754z"/>
			<path class="moneyTranSt82" d="M178.8,738.9v-19.7c0-3.3,2.7-6,6-6H388c3.3,0,6,2.7,6,6v19.7c0,3.3-2.7,6-6,6H184.8
				C181.5,744.9,178.8,742.2,178.8,738.9z"/>
			<path class="moneyTranSt83" d="M861,923.7c4.1,12.3-2.9,27.2,9.6,23.7c16.4-4.6,57.3-18.5,66.3-21c13-3.6,159.3-7.8,210.9-9.2
				c11.6-0.3,22.7-4.6,31.6-12.1c22.2-18.8,64.7-54.9,74.3-63.2c13.2-11.4,22-25.5,22-25.5l0,0c-0.9-27.3-35.2-18.5-48.2-14.1
				s-47.7,34.4-60.9,41.4c-11.2,5.9-106.4,4.9-134.7,4.5c-5.2-0.1-10.2-1.8-14.3-4.9c-10.7-8.2-31.8-24.7-37.6-33.1
				c-5.7-8.3-3.6-20.8-2-27c0.9-2.2,1.8-4.3,2.7-6.4c43.8-72.4,24-78.4,24-78.4c-32.5-28.2-60.7,56.3-77.4,82.7
				c-11.6,18.4-71.4,51.6-94.5,65.2c-9.9,5.8,5.7,9.7,9.3,20.6L861,923.7z"/>
			<path class="moneyTranSt84" d="M375.5,739.8H192.4c227.1,387.3,689.1,230.5,689.1,230.5l-51-151.1C562.1,935.6,375.5,739.8,375.5,739.8z"
				/>
			<path class="moneyTranSt85" d="M192.4,739.8c227.1,387.3,689.1,230.5,689.1,230.5l-8.4-25c-90.8,24.3-445.8,95.6-647.8-205.5H192.4z"/>
			<circle class="moneyTranSt85" cx="801.9" cy="854.2" r="15.8"/>
		</g>
		<path class="moneyTranSt79" d="M992.4,699.7c-11-3.6-19.5,16.2-19.5,16.2c7,0.1,19.5,12.8,19.5,12.8C1008.4,713,1003.4,703.4,992.4,699.7z"
			/>
		<path class="moneyTranSt79" d="M1253.8,841.8c0.4-6.5-4.4-8.5-4.4-8.5c8-8,26.4-17,26.4-17C1271.2,830.3,1253.8,841.8,1253.8,841.8z"/>
	</g>
	<g>
		<path class="moneyTranSt9" d="M1264.7,100.4c-6.1-6.6-14.5-10.9-24.1-11.3c-11-0.5-21.1,4.1-28,11.8c-0.1,0-0.1,0.1-0.2,0.2
			c-0.1,0.1-0.2,0.2-0.3,0.3c-2.3,2.1-2.8,5.2-1.1,7l5,5.4c1.6,1.8,4.8,1.5,7-0.6c0.1-0.1,0.1-0.1,0.2-0.2v0
			c0.1-0.1,0.1-0.1,0.2-0.2c0.2-0.2,0.4-0.5,0.6-0.7c3.9-4.5,9.6-7.2,15.9-6.9c4.4,0.2,8.5,1.9,11.7,4.6c0.1,0.2,0.3,0.4,0.4,0.5
			c0.3,0.4,0.6,0.7,1,1c1.9,1.6,4.3,1.9,5.9,0.6l5.7-4.6C1266.3,105.7,1266.3,102.8,1264.7,100.4L1264.7,100.4z"/>
		<path class="moneyTranSt9" d="M1315.3,55.8c-0.2-0.2-0.4-0.5-0.6-0.7l0-0.1c-17.8-20.9-43.6-34.7-72.8-36.2c-29.1-1.4-56.1,9.6-75.8,28.6
			c-0.2,0.2-0.5,0.3-0.7,0.5c-0.2,0.2-0.3,0.3-0.5,0.5c-1.8,2.1-1.9,5.1-0.1,7.1l5.9,6.4c1.7,1.9,4.6,2.1,6.9,0.6l0,0
			c0,0,0.1-0.1,0.1-0.1c0.2-0.1,0.4-0.3,0.6-0.5c0.3-0.2,0.5-0.5,0.7-0.8c16.1-15.4,38.1-24.3,61.8-23.2
			c23.9,1.2,44.9,12.4,59.5,29.4c0.1,0.1,0.1,0.2,0.2,0.3c0,0,0.1,0,0.1,0.1c1.9,2.3,5.2,2.8,7.4,1l6.7-5.5
			C1317,61.5,1317.3,58.2,1315.3,55.8z"/>
		<path class="moneyTranSt9" d="M1288.9,78.5L1288.9,78.5c-11.5-13.2-28-21.8-46.6-22.7c-19.7-1-37.9,6.8-50.9,20.1c-0.3,0.2-0.5,0.4-0.7,0.5
			c-0.1,0.1-0.2,0.2-0.3,0.3c-2,2.1-2.3,5.2-0.5,7l5.6,6c1.7,1.8,4.6,1.8,6.9,0.1c0.2-0.1,0.3-0.3,0.5-0.4c0.4-0.4,0.7-0.8,1-1.2
			c9.6-9.7,23-15.4,37.6-14.7c13.3,0.7,25,6.6,33.6,15.6c0.1,0.2,0.2,0.3,0.4,0.5c0.2,0.2,0.4,0.4,0.6,0.6c2,1.9,4.8,2.2,6.6,0.7
			l6.2-5.1C1290.9,84.2,1290.9,81,1288.9,78.5C1289,78.5,1289,78.5,1288.9,78.5z"/>
		<path class="moneyTranSt9" d="M1239,118.3c-7.6,0-13.7,6.1-13.7,13.7c0,7.6,6.2,13.7,13.7,13.7c7.6,0,13.7-6.1,13.7-13.7
			C1252.8,124.5,1246.6,118.3,1239,118.3z"/>
	</g>
	<g>
		<polyline class="moneyTranSt86" points="858.3,167.4 858.3,170.7 858.3,204.7 809.5,186.1 		"/>
		<line class="moneyTranSt87" x1="1112.1" y1="186.9" x2="1150.6" y2="186.9"/>
		<line class="moneyTranSt87" x1="1161.7" y1="186.9" x2="1200.2" y2="186.9"/>
		<line class="moneyTranSt87" x1="1211.3" y1="186.9" x2="1249.8" y2="186.9"/>
		<line class="moneyTranSt87" x1="1260.9" y1="186.9" x2="1299.3" y2="186.9"/>
		<line class="moneyTranSt87" x1="1310.5" y1="186.9" x2="1348.9" y2="186.9"/>
		<line class="moneyTranSt87" x1="1360" y1="186.9" x2="1398.5" y2="186.9"/>
		<line class="moneyTranSt87" x1="1409.6" y1="186.9" x2="1448.1" y2="186.9"/>
		<line class="moneyTranSt87" x1="1459.2" y1="186.9" x2="1497.7" y2="186.9"/>
		<line class="moneyTranSt87" x1="1508.8" y1="186.9" x2="1547.3" y2="186.9"/>
		<line class="moneyTranSt87" x1="1558.4" y1="186.9" x2="1596.9" y2="186.9"/>
		<line class="moneyTranSt87" x1="1608" y1="186.9" x2="1646.5" y2="186.9"/>
		<line class="moneyTranSt87" x1="1657.6" y1="186.9" x2="1696.1" y2="186.9"/>
		<line class="moneyTranSt87" x1="1012.9" y1="186.9" x2="1051.4" y2="186.9"/>
		<line class="moneyTranSt87" x1="1062.5" y1="186.9" x2="1101" y2="186.9"/>
		<line class="moneyTranSt87" x1="913.7" y1="186.9" x2="952.2" y2="186.9"/>
		<line class="moneyTranSt87" x1="963.3" y1="186.9" x2="1001.8" y2="186.9"/>
		<line class="moneyTranSt87" x1="862.7" y1="186.9" x2="901.2" y2="186.9"/>
	</g>
</g>
</svg>
